<?xml version="1.0" encoding="utf-8"?>
<svg version="1.0" xmlns="http://www.w3.org/2000/svg" viewBox="0 0 100 100" aria-hidden="true">
  <path d="M89.138 61.695 79.027 63.095c1.664-2.197 3.594-4.168 5.766-5.83l-3.037-3.969c-2.858 2.184-5.316 4.746-7.348 7.594l-10.306-5.949c.208-.594.423-1.176.557-1.797L75 51.662v-3.329l-10.342-1.478c-.134-.622-.352-1.205-.557-1.797l10.31-5.951c2.027 2.846 4.488 5.404 7.34 7.592l3.044-3.965c-2.229-1.713-4.131-3.691-5.752-5.83l10.095 1.396L90 35.081l-8.972-3.649 1.328-9.59-3.219-.862-3.845 9.45c-1.071-2.539-1.81-5.195-2.165-7.904l-4.957.645c.469 3.568 1.458 6.982 2.906 10.163l-10.481 6.052c-.173-.173-.381-.303-.563-.466l3.91-9.736-2.888-1.663-6.491 8.262c-.406-.131-.807-.283-1.23-.381v-9.887c3.477-.335 6.928-1.185 10.248-2.562l-1.914-4.619c-2.598 1.077-5.261 1.735-7.924 2.067L60 12.356 57.644 10 50 15.943 42.356 10 40 12.356l6.263 8.054c-2.732-.339-5.403-1.029-7.93-2.077l-1.917 4.616c3.321 1.38 6.771 2.232 10.251 2.564v9.89c-.424.095-.824.247-1.234.381L38.94 27.52l-2.885 1.663 3.91 9.743c-.18.162-.389.289-.561.462l-10.482-6.055c1.451-3.177 2.438-6.589 2.906-10.153l-4.957-.654c-.367 2.79-1.129 5.424-2.172 7.897l-3.838-9.44-3.219.863 1.328 9.593L10 35.084l.862 3.22 10.104-1.396c-1.66 2.197-3.593 4.167-5.762 5.827l3.038 3.971c2.857-2.188 5.318-4.752 7.346-7.598l10.313 5.951c-.208.592-.426 1.178-.559 1.797L25 48.333v3.333l10.342 1.479c.134.621.352 1.207.56 1.797l-10.313 5.953c-2.027-2.846-4.488-5.406-7.34-7.594l-3.044 3.967c2.233 1.713 4.134 3.689 5.753 5.828l-10.096-1.396L10 64.918l8.97 3.648-1.326 9.59 3.219.863 3.844-9.453c1.072 2.535 1.811 5.195 2.166 7.906l4.955-.646c-.465-3.568-1.453-6.98-2.904-10.16l10.482-6.051c.172.172.38.299.559.461l-3.906 9.744 2.885 1.662 6.49-8.268c.41.133.811.287 1.237.385v9.889c-3.478.332-6.927 1.182-10.247 2.559l1.914 4.619c2.6-1.078 5.26-1.734 7.923-2.066l-6.257 8.043L42.36 90l7.643-5.945L57.646 90l2.356-2.357-6.266-8.053c2.734.338 5.406 1.027 7.933 2.076l1.917-4.615c-3.32-1.381-6.771-2.23-10.25-2.566V64.6c.423-.098.823-.252 1.23-.385l6.49 8.268 2.885-1.666-3.91-9.736c.183-.162.395-.293.566-.465l10.476 6.047c-1.445 3.182-2.435 6.592-2.903 10.156l4.957.652c.365-2.791 1.127-5.424 2.172-7.895l3.834 9.439 3.22-.861-1.325-9.59L90 64.914l-.862-3.219Z" />
</svg>
