<svg width="81" height="81" viewBox="0 0 81 81" fill="none" xmlns="http://www.w3.org/2000/svg">
    <g clip-path="url(#clip0_307_4986)">
        <path d="M69 11.9304H13V68.0701H69V11.9304Z" fill="white"/>
        <path d="M61.9334 54.3226H62.01C61.9827 58.3093 59.6639 61.0382 55.5678 61.0382C51.7014 61.0382 48.3765 58.3093 48.3765 54.3718C48.3765 50.9593 51.2913 48.6843 54.2936 48.0226L54.3155 48.0882C53.1999 48.6351 52.2647 49.5921 51.8108 50.9101L56.2952 48.9085V55.7609L53.2436 57.1007V50.4124L51.7397 51.0742C51.5374 51.7577 51.4444 52.4632 51.4444 53.1906C51.4444 56.2148 53.3585 58.0359 56.3608 58.0359C57.1538 58.0359 57.9303 57.921 58.6795 57.6476V54.3226L56.8803 52.7093L58.6795 51.1398V48.8648H58.4991C56.5686 48.8648 53.4514 47.2515 51.5155 47.2515C50.7225 47.2515 50.0827 47.8202 50.0827 48.5038C50.0827 49.0015 50.2905 49.3241 50.5858 49.5046L50.564 49.5976C49.6288 49.2531 48.7429 48.7554 48.7429 47.2296C48.7429 45.682 50.1483 44.1562 52.1991 44.1562C54.496 44.1562 56.6124 45.6109 58.4116 45.6109C59.1389 45.6109 59.5491 45.1132 59.5491 44.6101C59.5491 43.9484 59.0022 43.6093 58.2749 43.6093C58.2038 43.6093 58.0014 43.6312 57.8647 43.6312V43.5382C58.2311 43.4452 58.4772 43.4452 58.7069 43.4452C59.7514 43.4452 61.5944 44.1234 61.5944 46.0593C61.5944 47.5413 60.4569 48.7445 58.8163 48.8593V51.1179L60.6155 52.7093L58.8163 54.3226V57.5984C60.3202 56.9859 61.3647 55.8265 61.9334 54.3226Z" fill="white"/>
        <path d="M69.0002 36.9977V38.0915H46.1946L42.624 49.1531C42.4611 49.6574 42.2467 50.1353 41.9847 50.5816V68.0001H40.891V51.9996C40.3687 52.5235 39.7617 52.9665 39.0847 53.3132C38.0631 53.8366 36.9557 54.1013 35.8401 54.1013C35.1029 54.1013 34.3624 53.9853 33.6406 53.7524L13.0005 47.0903V36.9977L17.7337 22.6827C18.3188 20.8688 19.5761 19.3911 21.2725 18.5227C22.9694 17.6537 24.9026 17.4978 26.7171 18.0835L40.891 22.6587V12.0001H41.9847V23.0114L50.2053 25.6649L46.5473 36.9977H69.0002Z" fill="white"/>
        <path d="M48.8283 26.3697L41.5828 48.8173C41.4849 49.1203 41.3651 49.4118 41.2246 49.6907C41.124 49.8914 41.0124 50.085 40.891 50.2714C40.3234 51.1421 39.5364 51.8536 38.5865 52.3397C37.1498 53.0753 35.5125 53.2076 33.9763 52.7116L13.0005 45.9413V40.9068L18.7744 23.0185C19.2704 21.4829 20.3346 20.2316 21.7712 19.4961C23.2079 18.7605 24.8447 18.6287 26.3808 19.1242L48.8283 26.3697Z" fill="#3F7FDE"/>
        <path d="M61.9339 54.3229C61.3652 55.8268 60.3206 56.9862 58.8167 57.5987V54.3229L60.616 52.7096L58.8167 51.1182V48.8596C60.4574 48.7448 61.5949 47.5416 61.5949 46.0596C61.5949 44.1237 59.7519 43.4455 58.7074 43.4455C58.4777 43.4455 58.2316 43.4455 57.8652 43.5385V43.6315C58.0019 43.6315 58.2043 43.6096 58.2754 43.6096C59.0027 43.6096 59.5496 43.9487 59.5496 44.6104C59.5496 45.1135 59.1394 45.6112 58.4121 45.6112C56.6129 45.6112 54.4965 44.1565 52.1996 44.1565C50.1488 44.1565 48.7434 45.6823 48.7434 47.2299C48.7434 48.7557 49.6293 49.2534 50.5644 49.5979L50.5863 49.5049C50.291 49.3245 50.0832 49.0018 50.0832 48.5041C50.0832 47.8205 50.723 47.2518 51.516 47.2518C53.4519 47.2518 56.5691 48.8651 58.4996 48.8651H58.68V51.1401L56.8808 52.7096L58.68 54.3229V57.6479C57.9308 57.9213 57.1543 58.0362 56.3613 58.0362C53.359 58.0362 51.4449 56.2151 51.4449 53.1909C51.4449 52.4635 51.5379 51.758 51.7402 51.0745L53.2441 50.4127V57.101L56.2957 55.7612V48.9088L51.8113 50.9104C52.2652 49.5924 53.2004 48.6354 54.316 48.0885L54.2941 48.0229C51.2918 48.6846 48.377 50.9596 48.377 54.3721C48.377 58.3096 51.7019 61.0385 55.5683 61.0385C59.6644 61.0385 61.9831 58.3096 62.0105 54.3229H61.9339ZM61.9339 54.3229C61.3652 55.8268 60.3206 56.9862 58.8167 57.5987V54.3229L60.616 52.7096L58.8167 51.1182V48.8596C60.4574 48.7448 61.5949 47.5416 61.5949 46.0596C61.5949 44.1237 59.7519 43.4455 58.7074 43.4455C58.4777 43.4455 58.2316 43.4455 57.8652 43.5385V43.6315C58.0019 43.6315 58.2043 43.6096 58.2754 43.6096C59.0027 43.6096 59.5496 43.9487 59.5496 44.6104C59.5496 45.1135 59.1394 45.6112 58.4121 45.6112C56.6129 45.6112 54.4965 44.1565 52.1996 44.1565C50.1488 44.1565 48.7434 45.6823 48.7434 47.2299C48.7434 48.7557 49.6293 49.2534 50.5644 49.5979L50.5863 49.5049C50.291 49.3245 50.0832 49.0018 50.0832 48.5041C50.0832 47.8205 50.723 47.2518 51.516 47.2518C53.4519 47.2518 56.5691 48.8651 58.4996 48.8651H58.68V51.1401L56.8808 52.7096L58.68 54.3229V57.6479C57.9308 57.9213 57.1543 58.0362 56.3613 58.0362C53.359 58.0362 51.4449 56.2151 51.4449 53.1909C51.4449 52.4635 51.5379 51.758 51.7402 51.0745L53.2441 50.4127V57.101L56.2957 55.7612V48.9088L51.8113 50.9104C52.2652 49.5924 53.2004 48.6354 54.316 48.0885L54.2941 48.0229C51.2918 48.6846 48.377 50.9596 48.377 54.3721C48.377 58.3096 51.7019 61.0385 55.5683 61.0385C59.6644 61.0385 61.9831 58.3096 62.0105 54.3229H61.9339ZM61.9339 54.3229C61.3652 55.8268 60.3206 56.9862 58.8167 57.5987V54.3229L60.616 52.7096L58.8167 51.1182V48.8596C60.4574 48.7448 61.5949 47.5416 61.5949 46.0596C61.5949 44.1237 59.7519 43.4455 58.7074 43.4455C58.4777 43.4455 58.2316 43.4455 57.8652 43.5385V43.6315C58.0019 43.6315 58.2043 43.6096 58.2754 43.6096C59.0027 43.6096 59.5496 43.9487 59.5496 44.6104C59.5496 45.1135 59.1394 45.6112 58.4121 45.6112C56.6129 45.6112 54.4965 44.1565 52.1996 44.1565C50.1488 44.1565 48.7434 45.6823 48.7434 47.2299C48.7434 48.7557 49.6293 49.2534 50.5644 49.5979L50.5863 49.5049C50.291 49.3245 50.0832 49.0018 50.0832 48.5041C50.0832 47.8205 50.723 47.2518 51.516 47.2518C53.4519 47.2518 56.5691 48.8651 58.4996 48.8651H58.68V51.1401L56.8808 52.7096L58.68 54.3229V57.6479C57.9308 57.9213 57.1543 58.0362 56.3613 58.0362C53.359 58.0362 51.4449 56.2151 51.4449 53.1909C51.4449 52.4635 51.5379 51.758 51.7402 51.0745L53.2441 50.4127V57.101L56.2957 55.7612V48.9088L51.8113 50.9104C52.2652 49.5924 53.2004 48.6354 54.316 48.0885L54.2941 48.0229C51.2918 48.6846 48.377 50.9596 48.377 54.3721C48.377 58.3096 51.7019 61.0385 55.5683 61.0385C59.6644 61.0385 61.9831 58.3096 62.0105 54.3229H61.9339ZM61.9339 54.3229C61.3652 55.8268 60.3206 56.9862 58.8167 57.5987V54.3229L60.616 52.7096L58.8167 51.1182V48.8596C60.4574 48.7448 61.5949 47.5416 61.5949 46.0596C61.5949 44.1237 59.7519 43.4455 58.7074 43.4455C58.4777 43.4455 58.2316 43.4455 57.8652 43.5385V43.6315C58.0019 43.6315 58.2043 43.6096 58.2754 43.6096C59.0027 43.6096 59.5496 43.9487 59.5496 44.6104C59.5496 45.1135 59.1394 45.6112 58.4121 45.6112C56.6129 45.6112 54.4965 44.1565 52.1996 44.1565C50.1488 44.1565 48.7434 45.6823 48.7434 47.2299C48.7434 48.7557 49.6293 49.2534 50.5644 49.5979L50.5863 49.5049C50.291 49.3245 50.0832 49.0018 50.0832 48.5041C50.0832 47.8205 50.723 47.2518 51.516 47.2518C53.4519 47.2518 56.5691 48.8651 58.4996 48.8651H58.68V51.1401L56.8808 52.7096L58.68 54.3229V57.6479C57.9308 57.9213 57.1543 58.0362 56.3613 58.0362C53.359 58.0362 51.4449 56.2151 51.4449 53.1909C51.4449 52.4635 51.5379 51.758 51.7402 51.0745L53.2441 50.4127V57.101L56.2957 55.7612V48.9088L51.8113 50.9104C52.2652 49.5924 53.2004 48.6354 54.316 48.0885L54.2941 48.0229C51.2918 48.6846 48.377 50.9596 48.377 54.3721C48.377 58.3096 51.7019 61.0385 55.5683 61.0385C59.6644 61.0385 61.9831 58.3096 62.0105 54.3229H61.9339ZM54.316 48.0885L54.2941 48.0229C51.2918 48.6846 48.377 50.9596 48.377 54.3721C48.377 58.3096 51.7019 61.0385 55.5683 61.0385C59.6644 61.0385 61.9831 58.3096 62.0105 54.3229H61.9339C61.3652 55.8268 60.3206 56.9862 58.8167 57.5987V54.3229L60.616 52.7096L58.8167 51.1182V48.8596C60.4574 48.7448 61.5949 47.5416 61.5949 46.0596C61.5949 44.1237 59.7519 43.4455 58.7074 43.4455C58.4777 43.4455 58.2316 43.4455 57.8652 43.5385V43.6315C58.0019 43.6315 58.2043 43.6096 58.2754 43.6096C59.0027 43.6096 59.5496 43.9487 59.5496 44.6104C59.5496 45.1135 59.1394 45.6112 58.4121 45.6112C56.6129 45.6112 54.4965 44.1565 52.1996 44.1565C50.1488 44.1565 48.7434 45.6823 48.7434 47.2299C48.7434 48.7557 49.6293 49.2534 50.5644 49.5979L50.5863 49.5049C50.291 49.3245 50.0832 49.0018 50.0832 48.5041C50.0832 47.8205 50.723 47.2518 51.516 47.2518C53.4519 47.2518 56.5691 48.8651 58.4996 48.8651H58.68V51.1401L56.8808 52.7096L58.68 54.3229V57.6479C57.9308 57.9213 57.1543 58.0362 56.3613 58.0362C53.359 58.0362 51.4449 56.2151 51.4449 53.1909C51.4449 52.4635 51.5379 51.758 51.7402 51.0745L53.2441 50.4127V57.101L56.2957 55.7612V48.9088L51.8113 50.9104C52.2652 49.5924 53.2004 48.6354 54.316 48.0885ZM61.9339 54.3229C61.3652 55.8268 60.3206 56.9862 58.8167 57.5987V54.3229L60.616 52.7096L58.8167 51.1182V48.8596C60.4574 48.7448 61.5949 47.5416 61.5949 46.0596C61.5949 44.1237 59.7519 43.4455 58.7074 43.4455C58.4777 43.4455 58.2316 43.4455 57.8652 43.5385V43.6315C58.0019 43.6315 58.2043 43.6096 58.2754 43.6096C59.0027 43.6096 59.5496 43.9487 59.5496 44.6104C59.5496 45.1135 59.1394 45.6112 58.4121 45.6112C56.6129 45.6112 54.4965 44.1565 52.1996 44.1565C50.1488 44.1565 48.7434 45.6823 48.7434 47.2299C48.7434 48.7557 49.6293 49.2534 50.5644 49.5979L50.5863 49.5049C50.291 49.3245 50.0832 49.0018 50.0832 48.5041C50.0832 47.8205 50.723 47.2518 51.516 47.2518C53.4519 47.2518 56.5691 48.8651 58.4996 48.8651H58.68V51.1401L56.8808 52.7096L58.68 54.3229V57.6479C57.9308 57.9213 57.1543 58.0362 56.3613 58.0362C53.359 58.0362 51.4449 56.2151 51.4449 53.1909C51.4449 52.4635 51.5379 51.758 51.7402 51.0745L53.2441 50.4127V57.101L56.2957 55.7612V48.9088L51.8113 50.9104C52.2652 49.5924 53.2004 48.6354 54.316 48.0885L54.2941 48.0229C51.2918 48.6846 48.377 50.9596 48.377 54.3721C48.377 58.3096 51.7019 61.0385 55.5683 61.0385C59.6644 61.0385 61.9831 58.3096 62.0105 54.3229H61.9339ZM61.9339 54.3229C61.3652 55.8268 60.3206 56.9862 58.8167 57.5987V54.3229L60.616 52.7096L58.8167 51.1182V48.8596C60.4574 48.7448 61.5949 47.5416 61.5949 46.0596C61.5949 44.1237 59.7519 43.4455 58.7074 43.4455C58.4777 43.4455 58.2316 43.4455 57.8652 43.5385V43.6315C58.0019 43.6315 58.2043 43.6096 58.2754 43.6096C59.0027 43.6096 59.5496 43.9487 59.5496 44.6104C59.5496 45.1135 59.1394 45.6112 58.4121 45.6112C56.6129 45.6112 54.4965 44.1565 52.1996 44.1565C50.1488 44.1565 48.7434 45.6823 48.7434 47.2299C48.7434 48.7557 49.6293 49.2534 50.5644 49.5979L50.5863 49.5049C50.291 49.3245 50.0832 49.0018 50.0832 48.5041C50.0832 47.8205 50.723 47.2518 51.516 47.2518C53.4519 47.2518 56.5691 48.8651 58.4996 48.8651H58.68V51.1401L56.8808 52.7096L58.68 54.3229V57.6479C57.9308 57.9213 57.1543 58.0362 56.3613 58.0362C53.359 58.0362 51.4449 56.2151 51.4449 53.1909C51.4449 52.4635 51.5379 51.758 51.7402 51.0745L53.2441 50.4127V57.101L56.2957 55.7612V48.9088L51.8113 50.9104C52.2652 49.5924 53.2004 48.6354 54.316 48.0885L54.2941 48.0229C51.2918 48.6846 48.377 50.9596 48.377 54.3721C48.377 58.3096 51.7019 61.0385 55.5683 61.0385C59.6644 61.0385 61.9831 58.3096 62.0105 54.3229H61.9339ZM61.9339 54.3229C61.3652 55.8268 60.3206 56.9862 58.8167 57.5987V54.3229L60.616 52.7096L58.8167 51.1182V48.8596C60.4574 48.7448 61.5949 47.5416 61.5949 46.0596C61.5949 44.1237 59.7519 43.4455 58.7074 43.4455C58.4777 43.4455 58.2316 43.4455 57.8652 43.5385V43.6315C58.0019 43.6315 58.2043 43.6096 58.2754 43.6096C59.0027 43.6096 59.5496 43.9487 59.5496 44.6104C59.5496 45.1135 59.1394 45.6112 58.4121 45.6112C56.6129 45.6112 54.4965 44.1565 52.1996 44.1565C50.1488 44.1565 48.7434 45.6823 48.7434 47.2299C48.7434 48.7557 49.6293 49.2534 50.5644 49.5979L50.5863 49.5049C50.291 49.3245 50.0832 49.0018 50.0832 48.5041C50.0832 47.8205 50.723 47.2518 51.516 47.2518C53.4519 47.2518 56.5691 48.8651 58.4996 48.8651H58.68V51.1401L56.8808 52.7096L58.68 54.3229V57.6479C57.9308 57.9213 57.1543 58.0362 56.3613 58.0362C53.359 58.0362 51.4449 56.2151 51.4449 53.1909C51.4449 52.4635 51.5379 51.758 51.7402 51.0745L53.2441 50.4127V57.101L56.2957 55.7612V48.9088L51.8113 50.9104C52.2652 49.5924 53.2004 48.6354 54.316 48.0885L54.2941 48.0229C51.2918 48.6846 48.377 50.9596 48.377 54.3721C48.377 58.3096 51.7019 61.0385 55.5683 61.0385C59.6644 61.0385 61.9831 58.3096 62.0105 54.3229H61.9339ZM61.9339 54.3229C61.3652 55.8268 60.3206 56.9862 58.8167 57.5987V54.3229L60.616 52.7096L58.8167 51.1182V48.8596C60.4574 48.7448 61.5949 47.5416 61.5949 46.0596C61.5949 44.1237 59.7519 43.4455 58.7074 43.4455C58.4777 43.4455 58.2316 43.4455 57.8652 43.5385V43.6315C58.0019 43.6315 58.2043 43.6096 58.2754 43.6096C59.0027 43.6096 59.5496 43.9487 59.5496 44.6104C59.5496 45.1135 59.1394 45.6112 58.4121 45.6112C56.6129 45.6112 54.4965 44.1565 52.1996 44.1565C50.1488 44.1565 48.7434 45.6823 48.7434 47.2299C48.7434 48.7557 49.6293 49.2534 50.5644 49.5979L50.5863 49.5049C50.291 49.3245 50.0832 49.0018 50.0832 48.5041C50.0832 47.8205 50.723 47.2518 51.516 47.2518C53.4519 47.2518 56.5691 48.8651 58.4996 48.8651H58.68V51.1401L56.8808 52.7096L58.68 54.3229V57.6479C57.9308 57.9213 57.1543 58.0362 56.3613 58.0362C53.359 58.0362 51.4449 56.2151 51.4449 53.1909C51.4449 52.4635 51.5379 51.758 51.7402 51.0745L53.2441 50.4127V57.101L56.2957 55.7612V48.9088L51.8113 50.9104C52.2652 49.5924 53.2004 48.6354 54.316 48.0885L54.2941 48.0229C51.2918 48.6846 48.377 50.9596 48.377 54.3721C48.377 58.3096 51.7019 61.0385 55.5683 61.0385C59.6644 61.0385 61.9831 58.3096 62.0105 54.3229H61.9339Z" fill="#D1CECC"/>
        <path d="M46.1957 38.0918L42.6251 49.1535C42.4622 49.6577 42.2478 50.1357 41.9858 50.5819V68.0004H69.0014V38.0918H46.1957ZM55.5702 61.0387C51.7038 61.0387 48.3788 58.3098 48.3788 54.3723C48.3788 50.9598 51.2936 48.6848 54.2959 48.0231L54.3178 48.0887C53.2022 48.6356 52.2671 49.5926 51.8132 50.9106L56.2975 48.909V55.7614L53.246 57.1012V50.4129L51.7421 51.0747C51.5397 51.7582 51.4467 52.4637 51.4467 53.1911C51.4467 56.2153 53.3608 58.0364 56.3631 58.0364C57.1561 58.0364 57.9327 57.9215 58.6819 57.6481V54.3231L56.8827 52.7098L58.6819 51.1403V48.8653H58.5014C56.5709 48.8653 53.4538 47.252 51.5178 47.252C50.7249 47.252 50.085 47.8207 50.085 48.5043C50.085 49.002 50.2928 49.3247 50.5882 49.5051L50.5663 49.5981C49.6311 49.2536 48.7452 48.7559 48.7452 47.2301C48.7452 45.6825 50.1507 44.1567 52.2014 44.1567C54.4983 44.1567 56.6147 45.6114 58.4139 45.6114C59.1413 45.6114 59.5514 45.1137 59.5514 44.6106C59.5514 43.9489 59.0045 43.6098 58.2772 43.6098C58.2061 43.6098 58.0038 43.6317 57.867 43.6317V43.5387C58.2334 43.4457 58.4795 43.4457 58.7092 43.4457C59.7537 43.4457 61.5967 44.1239 61.5967 46.0598C61.5967 47.5418 60.4592 48.745 58.8186 48.8598V51.1184L60.6178 52.7098L58.8186 54.3231V57.5989C60.3225 56.9864 61.367 55.827 61.9358 54.3231H62.0123C61.985 58.3098 59.6662 61.0387 55.5702 61.0387Z" fill="#D1CECC"/>
        <path d="M46.5484 36.9979L50.2064 25.665L41.9858 23.0116V12.0003H69.0016L69.0014 36.9979H46.5484Z" fill="#B4D281"/>
        <path d="M40.891 12.0001V22.6587L26.7172 18.0835C24.9026 17.4978 22.9694 17.6537 21.2725 18.5226C19.5761 19.3911 18.3188 20.8687 17.7337 22.6827L13.1131 36.9977L13.0005 37.3314V12.0001H40.891Z" fill="#9A9A9A"/>
        <path d="M40.891 51.9995V67.9999H13.0005V47.0902L33.6406 53.7522C34.3624 53.9852 35.1029 54.1011 35.8401 54.1011C36.9557 54.1011 38.0631 53.8364 39.0847 53.3131C39.7617 52.9663 40.3687 52.5234 40.891 51.9995Z" fill="#D0A8D9"/>
        <path d="M62.01 54.3226C61.9827 58.3093 59.6639 61.0382 55.5678 61.0382C51.7014 61.0382 48.3765 58.3093 48.3765 54.3718C48.3765 50.9593 51.2913 48.6843 54.2936 48.0226L54.3155 48.0882C53.1999 48.6351 52.2647 49.5921 51.8108 50.9101L56.2952 48.9085V55.7608L53.2436 57.1007V50.4124L51.7397 51.0741C51.5374 51.7577 51.4444 52.4632 51.4444 53.1905C51.4444 56.2148 53.3585 58.0358 56.3608 58.0358C57.1538 58.0358 57.9303 57.921 58.6795 57.6476V54.3226L56.8803 52.7093L58.6795 51.1398V48.8648H58.4991C56.5686 48.8648 53.4514 47.2515 51.5155 47.2515C50.7225 47.2515 50.0827 47.8202 50.0827 48.5038C50.0827 49.0015 50.2905 49.3241 50.5858 49.5046L50.564 49.5976C49.6288 49.253 48.7429 48.7554 48.7429 47.2296C48.7429 45.6819 50.1483 44.1562 52.1991 44.1562C54.496 44.1562 56.6124 45.6108 58.4116 45.6108C59.1389 45.6108 59.5491 45.1132 59.5491 44.6101C59.5491 43.9483 59.0022 43.6093 58.2749 43.6093C58.2038 43.6093 58.0014 43.6312 57.8647 43.6312V43.5382C58.2311 43.4452 58.4772 43.4452 58.7069 43.4452C59.7514 43.4452 61.5944 44.1233 61.5944 46.0593C61.5944 47.5413 60.4569 48.7444 58.8163 48.8593V51.1179L60.6155 52.7093L58.8163 54.3226V57.5983C60.3202 56.9858 61.3647 55.8265 61.9334 54.3226H62.01Z" fill="black"/>
        <g opacity="0.92">
            <path d="M21.239 33.6638C23.0018 28.2023 27.4497 25.187 33.0412 26.9917C37.3583 28.3852 39.0927 31.7304 38.6197 35.5981L34.2479 34.8188C34.5906 32.6895 33.8048 30.9426 31.8023 30.2962C28.9156 29.3645 26.6867 32.1772 25.755 35.0639C24.7729 38.1067 24.8914 41.4761 27.9862 42.475C29.7807 43.0542 31.6433 42.6216 33.0649 40.3524L36.6436 42.2542C34.1487 46.1583 30.5359 47.0311 26.6609 45.7804C21.2515 44.0344 19.493 39.0732 21.239 33.6638Z" fill="#F2F6F7"/>
        </g>
        <path d="M42.4299 29.7929C42.4961 30.246 42.7782 30.6249 43.2809 30.7871C43.8022 30.9554 44.2609 30.8293 44.3992 30.4011C44.5194 30.0287 44.283 29.6783 43.6809 29.484L43.172 29.3197L43.3663 28.7176L43.8442 28.8719C44.3159 29.0242 44.7538 28.8776 44.87 28.5177C44.9682 28.2136 44.8103 27.8747 44.3262 27.7185C43.9103 27.5843 43.4684 27.7432 43.1826 28.0553L42.553 27.5642C43.0475 27.0727 43.7403 26.8372 44.5905 27.1117C45.5215 27.4122 45.9607 28.0473 45.7524 28.6928C45.6061 29.1459 45.1402 29.3793 44.5605 29.3704C45.1473 29.6968 45.4222 30.183 45.2498 30.7168C45.0115 31.4553 44.1128 31.7341 43.0825 31.4016C42.2385 31.1291 41.7652 30.5995 41.624 29.848L42.4299 29.7929Z" fill="white"/>
    </g>
    <rect x="12.0938" y="11.0938" width="57.8125" height="57.8125" rx="10.3241" stroke="white" stroke-width="1.8125"/>
    <defs>
        <clipPath id="clip0_307_4986">
            <rect x="13" y="12" width="56" height="56" rx="9.41789" fill="white"/>
        </clipPath>
    </defs>
</svg>
