<svg width="64" height="64" viewBox="0 0 64 64" fill="none" xmlns="http://www.w3.org/2000/svg">
<g clip-path="url(#clip0_midi_icon)">
<path d="M55.8985 0H8.10137C3.63418 0 6.10352e-05 3.63391 6.10352e-05 8.10131V55.8987C6.10352e-05 60.3659 3.63397 64 8.10137 64H55.8988C60.3659 64 64.0001 60.3661 64.0001 55.8987V8.10131C64.0001 3.63412 60.3659 0 55.8985 0ZM40.5252 20.2468H23.4756V3.24052H40.5252V20.2468ZM20.2353 40.5125H3.24058V23.4873H20.2353V40.5125ZM23.4758 43.753H40.5254V60.7593H23.4758V43.753ZM43.7657 23.4873H60.7593V40.5125H43.7657V23.4873ZM8.10137 3.24052H20.2353V20.2468H3.24058V8.10131C3.24058 5.421 5.42106 3.24052 8.10137 3.24052ZM55.8985 60.7593H43.7657V43.753H60.7593V55.8985C60.7593 58.5788 58.5789 60.7593 55.8985 60.7593Z" fill="black" stroke="black" stroke-width="0.266666" stroke-miterlimit="10"/>
<path d="M55.9803 1.62012H8.02101C4.4864 1.62012 1.62103 4.48549 1.62103 8.0201V55.9794C1.62103 59.514 4.4864 62.3794 8.02101 62.3794H55.9803C59.5149 62.3794 62.3803 59.514 62.3803 55.9794V8.0201C62.3803 4.48549 59.5149 1.62012 55.9803 1.62012Z" fill="white"/>
<path d="M55.8985 0H8.10137C3.63418 0 6.10352e-05 3.63391 6.10352e-05 8.10131V55.8987C6.10352e-05 60.3659 3.63397 64 8.10137 64H55.8988C60.3659 64 64.0001 60.3661 64.0001 55.8987V8.10131C64.0001 3.63412 60.3659 0 55.8985 0ZM40.5252 20.2468H23.4756V3.24052H40.5252V20.2468ZM20.2353 40.5125H3.24058V23.4873H20.2353V40.5125ZM23.4758 43.753H40.5254V60.7593H23.4758V43.753ZM43.7657 23.4873H60.7593V40.5125H43.7657V23.4873ZM8.10137 3.24052H20.2353V20.2468H3.24058V8.10131C3.24058 5.421 5.42106 3.24052 8.10137 3.24052ZM55.8985 60.7593H43.7657V43.753H60.7593V55.8985C60.7593 58.5788 58.5789 60.7593 55.8985 60.7593Z" fill="black" stroke="black" stroke-width="0.266666" stroke-miterlimit="10"/>
</g>
<defs>
<clipPath id="clip0_midi_icon">
<rect width="64" height="64" rx="4" fill="white"/>
</clipPath>
</defs>
</svg>
