<svg width="20" height="20" viewBox="0 0 20 20" fill="none" xmlns="http://www.w3.org/2000/svg">
<g id="NYT Icon">
<g clip-path="url(#clip0_4375_37662)">
<rect width="20" height="20" rx="2" fill="#121212"/>
<path id="Vector" d="M15.8971 11.654C15.6886 12.2383 15.3578 12.7725 14.9262 13.2215C14.4947 13.6706 13.9721 14.0244 13.3929 14.2597V11.654L14.8239 10.3688L13.3929 9.10132V7.30986C13.9839 7.29794 14.5471 7.05883 14.9631 6.64317C15.3791 6.22751 15.6153 5.66794 15.6217 5.08294C15.6217 3.5464 14.1406 3.00117 13.2999 3.00117C13.0723 2.99424 12.8448 3.01807 12.6237 3.07198V3.14633C12.7346 3.14633 12.8992 3.12863 12.9528 3.12863C13.536 3.12863 13.976 3.40124 13.976 3.92522C13.9725 4.0383 13.9458 4.14949 13.8974 4.252C13.849 4.3545 13.7801 4.44617 13.6947 4.52139C13.6093 4.59661 13.5093 4.65381 13.4008 4.68949C13.2923 4.72517 13.1776 4.73858 13.0637 4.7289C11.6327 4.7289 9.91909 3.57118 8.07309 3.57118C6.42743 3.5641 5.30409 4.77846 5.30409 6.00699C5.30409 7.23552 6.01959 7.61788 6.7673 7.88695L6.78518 7.81615C6.65088 7.73216 6.54205 7.61376 6.47025 7.47351C6.39844 7.33326 6.36634 7.1764 6.37735 7.01955C6.38598 6.87966 6.42251 6.74283 6.48483 6.61698C6.54714 6.49112 6.63402 6.37871 6.74043 6.28623C6.84685 6.19375 6.97071 6.12303 7.10488 6.07814C7.23905 6.03325 7.38086 6.01509 7.52215 6.02469C9.0748 6.02469 11.5791 7.30986 13.1353 7.30986H13.282V9.11902L11.851 10.3688L13.282 11.654V14.288C12.6838 14.4985 12.0528 14.6028 11.4181 14.5961C9.00325 14.5961 7.4828 13.148 7.4828 10.7441C7.47792 10.1751 7.55747 9.60848 7.71892 9.06237L8.92454 8.53839V13.849L11.3751 12.7869V7.34527L7.76185 8.93846C7.93041 8.45137 8.19489 8.00218 8.54 7.6169C8.88511 7.23161 9.30399 6.91788 9.77241 6.69383L9.75453 6.64073C7.3397 7.16471 5 8.9774 5 11.6894C5 14.8191 7.66883 17 10.7777 17C14.069 17 15.9329 14.8297 15.9508 11.6646L15.8971 11.654Z" fill="#F8F8F8"/>
<g id="Group 630066">
<path id="Rectangle 7557" d="M1.73738 4.41329C2.27642 2.58467 3.96792 1.25 5.97115 1.25H14.1732C16.1764 1.25 17.8679 2.58467 18.4069 4.41329H1.73738Z" fill="#87AD39" stroke="black" stroke-width="2.5"/>
<rect id="Rectangle 7558" x="1.55786" y="5.93689" width="17.0286" height="3.16329" fill="#87AD39" stroke="black" stroke-width="2.5"/>
<rect id="Rectangle 7559" x="1.55786" y="10.6237" width="17.0286" height="3.16329" fill="#87AD39" stroke="black" stroke-width="2.5"/>
<path id="Rectangle 7560" d="M18.4069 15.3106C17.8679 17.1392 16.1764 18.4739 14.1732 18.4739H5.97115C3.96792 18.4739 2.27642 17.1392 1.73738 15.3106H18.4069Z" fill="#87AD39" stroke="black" stroke-width="2.5"/>
<circle id="Ellipse 14" cx="13.1969" cy="2.734" r="1.484" fill="white" stroke="black" stroke-width="2.5"/>
<circle id="Ellipse 17" cx="6.94762" cy="12.303" r="1.484" fill="white" stroke="black" stroke-width="2.5"/>
<circle id="Ellipse 15" cx="17.298" cy="7.42083" r="1.484" fill="white" stroke="black" stroke-width="2.5"/>
<circle id="Ellipse 16" cx="3.04186" cy="16.9899" r="1.484" fill="white" stroke="black" stroke-width="2.5"/>
<g id="Group 630066_2">
<path id="Rectangle 7557_2" d="M1.73738 4.41329C2.27642 2.58467 3.96792 1.25 5.97115 1.25H14.1732C16.1764 1.25 17.8679 2.58467 18.4069 4.41329H1.73738Z" fill="#6F9520" stroke="black" stroke-width="2.5"/>
<rect id="Rectangle 7558_2" x="1.55786" y="5.93689" width="17.0286" height="3.16329" fill="#6F9520" stroke="black" stroke-width="2.5"/>
<rect id="Rectangle 7559_2" x="1.55786" y="10.6237" width="17.0286" height="3.16329" fill="#6F9520" stroke="black" stroke-width="2.5"/>
<path id="Rectangle 7560_2" d="M18.4069 15.3106C17.8679 17.1392 16.1764 18.4739 14.1732 18.4739H5.97115C3.96792 18.4739 2.27642 17.1392 1.73738 15.3106H18.4069Z" fill="#6F9520" stroke="black" stroke-width="2.5"/>
<circle id="Ellipse 14_2" cx="13.1969" cy="2.734" r="1.484" fill="white" stroke="black" stroke-width="2.5"/>
<circle id="Ellipse 17_2" cx="6.94762" cy="12.303" r="1.484" fill="white" stroke="black" stroke-width="2.5"/>
<circle id="Ellipse 15_2" cx="17.298" cy="7.42083" r="1.484" fill="white" stroke="black" stroke-width="2.5"/>
<circle id="Ellipse 16_2" cx="3.04186" cy="16.9899" r="1.484" fill="white" stroke="black" stroke-width="2.5"/>
<g id="c">
<path id="d" d="M17.6383 0.506287H2.70159C1.58303 0.506287 0.67627 1.41305 0.67627 2.5316V17.4683C0.67627 18.5869 1.58303 19.4936 2.70159 19.4936H17.6383C18.7568 19.4936 19.6636 18.5869 19.6636 17.4683V2.5316C19.6636 1.41305 18.7568 0.506287 17.6383 0.506287Z" fill="#A0C35A"/>
<g id="e">
<path id="Vector_2" d="M19.6669 5.24561H14.9243V9.99835H19.6669V5.24561Z" fill="white"/>
<path id="Vector_3" d="M10.1749 9.99835H5.42212V14.7511H10.1749V9.99835Z" fill="white"/>
<path id="Vector_4" d="M0.669434 14.751H5.42218V19.5037H2.69475C1.57745 19.5037 0.669434 18.5957 0.669434 17.4784V14.751Z" fill="white"/>
<path id="Vector_5" d="M14.9244 0.496185H10.1716V5.24893H14.9244V0.496185Z" fill="white"/>
</g>
<path id="Vector_6" d="M17.6383 0H2.70157C1.3041 0 0.169922 1.13418 0.169922 2.53165V17.4684C0.169922 18.8658 1.3041 20 2.70157 20H17.6383C19.0357 20 20.1699 18.8658 20.1699 17.4684V2.53165C20.1699 1.13418 19.0357 0 17.6383 0ZM19.1573 2.53165V4.74262H15.4206V1.01266H17.6383C18.4754 1.01266 19.1573 1.69451 19.1573 2.53165ZM14.4079 5.75527V9.49536H1.18258V5.75527H14.4079ZM10.6746 4.74262V1.01266H14.4079V4.74262H10.6746ZM1.18258 10.508H4.91591V14.2481H1.18258V10.508ZM5.92857 10.508H9.66191V14.2481H5.92857V10.508ZM10.6746 10.508H19.1573V14.2481H10.6746V10.508ZM19.1573 9.49536H15.4206V5.75527H19.1573V9.49536ZM2.70157 1.01266H9.66191V4.74262H1.18258V2.53165C1.18258 1.69451 1.86444 1.01266 2.70157 1.01266ZM1.18258 17.4684V15.2574H4.91591V18.9873H2.70157C1.86444 18.9873 1.18258 18.3055 1.18258 17.4684ZM17.6383 18.9873H5.92857V15.2574H19.1573V17.4684C19.1573 18.3055 18.4754 18.9873 17.6383 18.9873Z" fill="black"/>
</g>
</g>
</g>
</g>
</g>
<defs>
<clipPath id="clip0_4375_37662">
<rect width="20" height="20" rx="2" fill="white"/>
</clipPath>
</defs>
</svg>
