<?xml version="1.0" encoding="utf-8"?>
<!-- Generator: Adobe Illustrator 28.2.0, SVG Export Plug-In . SVG Version: 6.00 Build 0)  -->
<svg width="20" height="20" version="1.1" id="Layer_1" xmlns="http://www.w3.org/2000/svg" xmlns:xlink="http://www.w3.org/1999/xlink" x="0px" y="0px"
	 viewBox="0 0 20 20" style="enable-background:new 0 0 20 20;" xml:space="preserve">
<style type="text/css">
	.st0{display:none;}
	.st1{fill:#EFC929;}
	.st2{fill:#AAE5F2;}
	.st3{fill:#FFFFFF;}
</style>
<g id="Text__x2B__Info">
</g>
<g id="Grid" class="st0">
</g>
<g id="Keylines" class="st0">
</g>
<g id="Sq_Colored_BG_100_px">
</g>
<g id="Lockups">
</g>
<g id="Outlined_Icons_100_px">
</g>
<g id="White">
</g>
<g id="Icons_Play_Module_320_px">
</g>
<g id="Icons_Live_75_px">
</g>
<g id="Icons_Outlined_75_px">
	<g>
		<path d="M18.5,4.2c0,0.5-0.2,1-0.5,1.4l0,0c-0.1,0.1-0.2,0.2-0.3,0.3V14c0,0.7-0.5,1.3-1.2,1.5c-0.7,0.2-1.4-0.1-1.8-0.8l-2.4-4.4
			c-0.1,0.4-0.2,0.8-0.5,1.2l0,0c-0.1,0.1-0.2,0.2-0.3,0.3v5.6c0,0.7-0.4,1.3-1.1,1.5c-0.2,0.1-0.3,0.1-0.5,0.1
			c-0.5,0-1.1-0.3-1.4-0.8l-3.3-5.7v1.7c0.5,0.4,0.8,1,0.8,1.7c0,1.3-1,2.3-2.3,2.3s-2.3-1-2.3-2.3c0-0.7,0.3-1.3,0.8-1.7V6.5
			c0-0.6,0.3-1.1,0.8-1.4C3.9,4.7,4.8,5,5.2,5.7l2.4,4.2c0-0.5,0.2-1,0.6-1.5l0-0.1c0.1-0.1,0.2-0.2,0.3-0.3V2.6
			c0-0.7,0.5-1.3,1.2-1.5c0.7-0.2,1.4,0.1,1.8,0.8l3.2,5.9V5.9c-0.1-0.1-0.2-0.2-0.3-0.4l0,0c-0.3-0.4-0.4-0.9-0.4-1.3
			c0-1.3,1-2.3,2.3-2.3C17.5,1.8,18.5,2.9,18.5,4.2z"/>
		<g>
			<g>
				<g>
					<path class="st1" d="M17,6.4v7.6c0,0.3-0.1,0.6-0.4,0.7c-0.4,0.2-0.9,0.1-1.1-0.3l-4.4-8.1c-0.1-0.1-0.2-0.1-0.2,0.1v1.4
						c-0.5-0.2-1.1-0.2-1.6,0V2.6c0-0.4,0.2-0.7,0.6-0.8c0.3-0.1,0.7,0.1,0.9,0.4l4.4,8.1c0.1,0.1,0.2,0.1,0.2-0.1V6.4
						c0.3,0.1,0.5,0.1,0.8,0.1C16.4,6.5,16.7,6.5,17,6.4z"/>
				</g>
				<g>
					<g>
						<path class="st2" d="M10.8,12.2v5.2c0,0.4-0.2,0.7-0.6,0.8c-0.1,0-0.1,0-0.2,0c-0.3,0-0.5-0.2-0.7-0.4L4.9,10
							C4.8,9.9,4.6,9.9,4.6,10v3.6c-0.3-0.1-0.5-0.1-0.8-0.1s-0.5,0.1-0.8,0.1V6.4c0-0.4,0.2-0.7,0.6-0.8C4,5.6,4.3,5.7,4.5,6
							L9,13.9c0.1,0.1,0.2,0.1,0.2-0.1v-1.5c0.2,0.1,0.5,0.1,0.8,0.1C10.3,12.4,10.5,12.3,10.8,12.2z"/>
					</g>
				</g>
			</g>
			<circle class="st3" cx="10" cy="10" r="1.6"/>
			<circle class="st3" cx="16.2" cy="4.2" r="1.6"/>
			<circle class="st3" cx="3.8" cy="15.8" r="1.6"/>
		</g>
	</g>
</g>
</svg>
