<svg width="58" height="58" viewBox="0 0 58 58" fill="none" xmlns="http://www.w3.org/2000/svg">
    <g clip-path="url(#clip0_305_4907)">
        <rect width="58" height="58" rx="6.44444" fill="#E5E2E0"/>
        <path d="M27.0679 0.276179C27.0679 -5.21511 31.5194 -9.66669 37.0107 -9.66669H65.9059C66.2384 -9.66669 66.5079 -9.39717 66.5079 -9.06471V19.8304C66.5079 25.3217 62.0563 29.7733 56.565 29.7733H27.6698C27.3374 29.7733 27.0679 29.5038 27.0679 29.1713V0.276179Z" fill="#BBDF7F"/>
        <path d="M-9.6665 0.276179C-9.6665 -5.21511 -5.21494 -9.66669 0.276353 -9.66669H29.1715C29.504 -9.66669 29.7735 -9.39717 29.7735 -9.06471V19.8304C29.7735 25.3217 25.3219 29.7733 19.8306 29.7733H-9.06453C-9.39699 29.7733 -9.6665 29.5038 -9.6665 29.1713V0.276179Z" fill="white"/>
        <path d="M-9.6665 38.9429C-9.6665 33.4516 -5.21494 29 0.276353 29H29.1715C29.504 29 29.7735 29.2695 29.7735 29.602V58.4971C29.7735 63.9884 25.3219 68.44 19.8306 68.44H-9.06453C-9.39699 68.44 -9.6665 68.1705 -9.6665 67.838V38.9429Z" fill="#D48AE5"/>
        <path d="M14.5479 17.6592C15.3774 13.4191 19.4146 10.6203 23.5713 11.4336L23.582 11.4355L47.9473 16.0361L43.3545 40.3613L43.3525 40.373C42.9886 42.375 41.8046 44.1798 40.1104 45.25L40.084 45.2666L40.0586 45.2842C38.3027 46.4856 36.327 46.9229 34.2559 46.4727L34.2334 46.4678L34.2109 46.4639L9.97266 41.8857L14.5479 17.6592Z" fill="#3F7FDE" stroke="black" stroke-width="3.37414"/>
        <path d="M19.3072 26.4802C20.493 20.09 25.0502 16.0568 31.5925 17.2708C36.6437 18.2081 39.0781 21.7131 39.1091 26.1257L34.0858 25.886C34.1611 23.4448 33.0245 21.5971 30.6815 21.1623C27.3038 20.5355 25.2096 24.0185 24.5828 27.3962C23.9221 30.9564 24.5451 34.7234 28.1662 35.3953C30.2658 35.7849 32.2949 35.0283 33.5616 32.273L37.8575 33.8886C35.623 38.6362 31.6923 40.1416 27.1583 39.3003C20.829 38.1258 18.1327 32.8095 19.3072 26.4802Z" fill="white" fill-opacity="0.92"/>
    </g>
    <rect x="1.45" y="1.45" width="55.1" height="55.1" rx="4.99444" stroke="black" stroke-width="2.9"/>
    <defs>
        <clipPath id="clip0_305_4907">
            <rect width="58" height="58" rx="6.44444" fill="white"/>
        </clipPath>
    </defs>
</svg>
