<svg width="80" height="80" viewBox="0 0 80 80" fill="none" xmlns="http://www.w3.org/2000/svg">
    <g clip-path="url(#clip0_99_4636)">
        <rect width="80" height="80" rx="14" fill="#E5E2E0"/>
        <path d="M36.7646 -3.56572C36.7646 -11.1399 42.9047 -17.28 50.4789 -17.28H90.3343C90.7929 -17.28 91.1646 -16.9083 91.1646 -16.4497V23.4057C91.1646 30.9799 85.0246 37.12 77.4504 37.12H37.595C37.1364 37.12 36.7646 36.7483 36.7646 36.2897V-3.56572Z"
              fill="#B1C78C"/>
        <path d="M-14.4355 -3.56572C-14.4355 -11.1399 -8.29545 -17.28 -0.721261 -17.28H39.1341C39.5927 -17.28 39.9645 -16.9083 39.9645 -16.4497V23.4057C39.9645 30.9799 33.8244 37.12 26.2502 37.12H-13.6052C-14.0638 37.12 -14.4355 36.7483 -14.4355 36.2897V-3.56572Z"
              fill="#9A9A9A"/>
        <path d="M-14.0801 54.6743C-14.0801 47.1001 -7.93998 40.96 -0.365792 40.96H39.4896C39.9482 40.96 40.3199 41.3317 40.3199 41.7903V81.6457C40.3199 89.2199 34.1798 95.36 26.6056 95.36H-13.2498C-13.7083 95.36 -14.0801 94.9883 -14.0801 94.5297V54.6743Z"
              fill="#D0A8D9"/>
        <line x1="40.65" y1="-4.48" x2="40.65" y2="84.48" stroke="white" stroke-width="1.3"/>
        <line x1="81.9199" y1="36.49" x2="-7.04007" y2="36.49" stroke="white" stroke-width="1.3"/>
        <path d="M5.66486 14.1335C7.48712 8.48784 13.5411 5.38833 19.1868 7.21059L53.2621 18.2091L42.2637 52.2844C40.4414 57.9301 34.3874 61.0296 28.7417 59.2074L-5.33362 48.2089L5.66486 14.1335Z"
              fill="#3F7FDE" stroke="white" stroke-width="2.6"/>
        <path d="M10.9633 30.1573C13.5539 22.1312 20.0905 17.6998 28.3077 20.3521C34.6522 22.3999 37.2011 27.3161 36.506 32.9999L30.0812 31.8546C30.5848 28.7255 29.43 26.1582 26.4871 25.2084C22.2447 23.8391 18.9693 27.9726 17.5999 32.215C16.1566 36.6866 16.3309 41.6382 20.879 43.1062C23.5161 43.9574 26.2534 43.3217 28.3426 39.9869L33.6019 42.7817C29.9353 48.5192 24.626 49.8018 18.9313 47.9637C10.9816 45.3978 8.39738 38.1069 10.9633 30.1573Z"
              fill="white" fill-opacity="0.92"/>
        <path d="M41.5402 24.6076C41.6482 25.3474 42.1087 25.966 42.9295 26.2309C43.7807 26.5056 44.5296 26.2998 44.7553 25.6006C44.9515 24.9926 44.5656 24.4205 43.5827 24.1033L42.7518 23.8351L43.069 22.8521L43.8493 23.104C44.6194 23.3526 45.3343 23.1134 45.524 22.5257C45.6843 22.0291 45.4265 21.476 44.6361 21.2209C43.9572 21.0017 43.2357 21.2612 42.7691 21.7707L41.7412 20.969C42.5484 20.1666 43.6795 19.7821 45.0678 20.2301C46.5877 20.7207 47.3048 21.7578 46.9646 22.8116C46.7258 23.5513 45.9651 23.9324 45.0187 23.9178C45.9768 24.4508 46.4255 25.2446 46.1442 26.116C45.755 27.3219 44.2878 27.777 42.6057 27.2341C41.2276 26.7893 40.455 25.9245 40.2244 24.6976L41.5402 24.6076Z"
              fill="white"/>
        <path d="M70.2525 61.2523C69.3986 63.5102 67.8304 65.2508 65.5725 66.1703V61.2523L68.2738 58.8303L65.5725 56.441V53.0502C68.0357 52.8777 69.7434 51.0715 69.7434 48.8464C69.7434 45.94 66.9765 44.9219 65.4083 44.9219C65.0635 44.9219 64.694 44.9219 64.1439 45.0615V45.201C64.3492 45.201 64.653 45.1682 64.7597 45.1682C65.8517 45.1682 66.6727 45.6772 66.6727 46.6707C66.6727 47.426 66.057 48.1732 64.965 48.1732C62.2638 48.1732 59.0863 45.9892 55.638 45.9892C52.5591 45.9892 50.449 48.2799 50.449 50.6035C50.449 52.8942 51.7791 53.6413 53.1831 54.1586L53.2159 54.019C52.7726 53.748 52.4606 53.2636 52.4606 52.5165C52.4606 51.4902 53.4212 50.6363 54.6117 50.6363C57.5182 50.6363 62.1981 53.0584 65.0963 53.0584H65.3673V56.4739L62.6661 58.8303L65.3673 61.2523V66.2442C64.2425 66.6548 63.0766 66.8272 61.8861 66.8272C57.3786 66.8272 54.5049 64.0931 54.5049 59.5528C54.5049 58.4608 54.6445 57.4017 54.9483 56.3754L57.2062 55.3819V65.4232L61.7876 63.4117V53.124L55.055 56.129C55.7365 54.1503 57.1405 52.7135 58.8154 51.8925L58.7826 51.794C54.2751 52.7874 49.8989 56.2029 49.8989 61.3262C49.8989 67.2377 54.8908 71.3347 60.6956 71.3347C66.8452 71.3347 70.3264 67.2377 70.3674 61.2523H70.2525Z"
              fill="black"/>
    </g>
    <defs>
        <clipPath id="clip0_99_4636">
            <rect width="80" height="80" rx="14" fill="white"/>
        </clipPath>
    </defs>
</svg>
