<?xml version="1.0" encoding="utf-8"?>
<!-- Generator: Adobe Illustrator 27.5.0, SVG Export Plug-In . SVG Version: 6.00 Build 0)  -->
<svg width="20" height="20" version="1.1" id="Layer_1" xmlns="http://www.w3.org/2000/svg"
	xmlns:xlink="http://www.w3.org/1999/xlink" x="0px" y="0px"
	viewBox="0 0 20 20" style="enable-background:new 0 0 20 20;" xml:space="preserve">
<style type="text/css">
	.st0{fill:#7FA768;}
	.st1{fill:#6AAA64;}
	.st2{fill:#FFFFFF;}
	.st3{fill:#D1B036;}
</style>
<path class="st0" d="M13.2,7.2L13.2,7.2L13.2,7.2L13.2,7.2L13.2,7.2z"/>
<path class="st1" d="M13.2,7.7v10.3h3.7c0.6,0,1-0.4,1-1v-4.1V7.7L13.2,7.7z"/>
<path class="st2" d="M17.7,3.2v3.6l-4.6,0l0-4.6h3.6C17.3,2.2,17.7,2.7,17.7,3.2z"/>
<path class="st1" d="M12.5,12.9v5h-5v-5L12.5,12.9z"/>
<path class="st3" d="M12.6,7.4l0,5.2l-5.2,0l0-5.2L12.6,7.4z"/>
<path class="st2" d="M12.3,2.2l0,4.6l-4.6,0V2.2H12.3z"/>
<path class="st1" d="M7.2,12.9V18h-4c-0.6,0-1.1-0.5-1.1-1.1v-4H7.2z"/>
<path class="st2" d="M6.8,7.7l0,4.6H2.2V7.7H6.8z"/>
<path class="st2" d="M6.9,2.2v4.6H2.2V3.2c0-0.5,0.4-1,1-1H6.9z"/>
<path d="M16.8,1.4H3.2c-1,0-1.8,0.8-1.8,1.8v13.5c0,1,0.8,1.8,1.8,1.8h13.5c1,0,1.8-0.8,1.8-1.8V3.2C18.6,2.2,17.8,1.4,16.8,1.4z
	 M13.2,7.3L13.2,7.3L13.2,7.3L13.2,7.3L13.2,7.3z M2.3,7.7h4.6l0,4.6H2.3V7.7z M6.9,17.7H3.2c-0.5,0-1-0.4-1-1v-3.6h4.6V17.7z
	 M6.9,6.8H2.3V3.2c0-0.5,0.4-1,1-1h3.6L6.9,6.8L6.9,6.8z M12.3,17.7H7.7v-4.6l4.6,0V17.7z M12.3,12.3l-4.6,0l0-4.6l4.6,0L12.3,12.3z
	 M12.3,6.8l-4.6,0V2.3h4.6L12.3,6.8z M17.7,16.8c0,0.5-0.4,1-1,1h-3.6v-4.6h4.6V16.8z M17.7,12.3h-4.6l0-4.6l4.6,0V12.3z M17.7,6.9
	l-4.6,0l0-4.6h3.6c0.5,0,1,0.4,1,1V6.9z"/>
</svg>