<?xml version="1.0" encoding="UTF-8"?>
<svg id="Icons_Outlined_75_px" xmlns="http://www.w3.org/2000/svg" version="1.1" viewBox="0 0 75 75">
  <!-- Generator: Adobe Illustrator 29.3.1, SVG Export Plug-In . SVG Version: 2.1.0 Build 151)  -->
  <defs>
    <style>
      .st0 {
        fill: #fff;
      }
    </style>
  </defs>
  <path class="st0" d="M42.6,6.7c-2.7-2.7-7-2.7-9.7,0l-4.8,4.8v4.8c0,3.3-1.3,6.2-3.5,8.4-2.1,2.1-5.1,3.5-8.4,3.5h-4.8l-4.8,4.8c-2.7,2.7-2.7,7.1,0,9.7l25.7,25.7c2.7,2.7,7,2.7,9.7,0l26.2-26.2c2.7-2.7,2.7-7,0-9.7L42.6,6.7Z"/>
  <g>
    <g>
      <path d="M49.13,40c-1.1-1.1-1.1-2.8,0-3.9s2.8-1.1,3.9,0,1.1,2.8,0,3.9-2.8,1.1-3.9,0h0Z"/>
      <path d="M57.33,40c-1.1-1.1-1.1-2.8,0-3.9,1.1-1.1,2.8-1.1,3.9,0,1.1,1.1,1.1,2.8,0,3.9s-2.8,1.1-3.9,0h0Z"/>
    </g>
    <g>
      <path d="M13.77,40c-1.1-1.1-1.1-2.8,0-3.9s2.8-1.1,3.9,0,1.1,2.8,0,3.9-2.8,1.1-3.9,0h0Z"/>
      <path d="M21.97,40c-1.1-1.1-1.1-2.8,0-3.9s2.8-1.1,3.9,0,1.1,2.8,0,3.9-2.8,1.1-3.9,0h0Z"/>
    </g>
  </g>
  <g>
    <rect x="20.85" y="44.99" width="15.5" height="2.8" transform="translate(-24.42 33.81) rotate(-45)"/>
    <rect x="38.65" y="27.21" width="15.5" height="2.8" transform="translate(-6.64 41.19) rotate(-45)"/>
  </g>
  <g>
    <path d="M31.75,58.13c-1.5,0-2.8-1.2-2.8-2.8,0-1.5,1.2-2.8,2.8-2.8,1.5,0,2.8,1.2,2.8,2.8s-1.2,2.8-2.8,2.8h0Z"/>
    <path d="M37.55,52.33c-1.5,0-2.8-1.2-2.8-2.8s1.2-2.8,2.8-2.8,2.8,1.2,2.8,2.8-1.2,2.8-2.8,2.8h0Z"/>
    <path d="M37.45,63.73c-1.5,0-2.8-1.2-2.8-2.8s1.2-2.8,2.8-2.8,2.8,1.2,2.8,2.8-1.2,2.8-2.8,2.8h0Z"/>
    <path d="M43.25,58.03c-1.5,0-2.8-1.2-2.8-2.8s1.2-2.8,2.8-2.8,2.8,1.2,2.8,2.8c0,1.5-1.2,2.8-2.8,2.8h0Z"/>
  </g>
  <path d="M37.91,23.09c-1.7,0-3-1.3-3-3s1.3-3,3-3,3,1.3,3,3c0,1.7-1.3,3-3,3h0Z"/>
  <path d="M43.55,5.7c-1.6-1.6-3.7-2.5-5.9-2.5h0c-2.2,0-4.3.9-5.9,2.5l-5.2,5.2v5.4c0,2.8-1.1,5.4-3,7.3-2,2-4.5,3-7.3,3h-5.4s-5.2,5.2-5.2,5.2c-3.3,3.3-3.3,8.6,0,11.9l25.7,25.7c1.6,1.6,3.8,2.4,5.9,2.4s4.3-.8,5.9-2.5l26.2-26.2c3.3-3.3,3.3-8.6,0-11.8L43.55,5.7ZM40.85,67.4c-1,1-2.4,1.6-3.8,1.6h0c-1.4,0-2.8-.6-3.8-1.6L7.55,41.7c-2.1-2.1-2.1-5.5,0-7.6l4.4-4.4h4.2c3.1,0,6-1,8.4-3l28.5,28.5-12.1,12.1-.1.1ZM67.15,41.1l-12.1,12.1-28.5-28.5c1.9-2.4,3-5.3,3-8.4v-4.2s4.4-4.4,4.4-4.4c1-1,2.4-1.6,3.8-1.6h0c1.4,0,2.8.6,3.8,1.6l25.7,25.7c1,1,1.6,2.4,1.6,3.8s-.6,2.8-1.6,3.8l-.1.1Z"/>
</svg>