<svg width="76" height="76" viewBox="0 0 76 76" fill="none" xmlns="http://www.w3.org/2000/svg">
<path d="M43.1002 7.20005C40.4002 4.50005 36.1002 4.50005 33.4002 7.20005L28.6002 12V16.8C28.6002 20.1 27.3002 23 25.1002 25.2001C23.0002 27.3001 20.0002 28.7001 16.7002 28.7001H11.9002L7.1002 33.5C4.4002 36.2001 4.4002 40.6001 7.1002 43.2001L32.8002 68.9001C35.5002 71.6001 39.8002 71.6001 42.5002 68.9001L68.7002 42.7001C71.4002 40 71.4002 35.7001 68.7002 33L43.1002 7.20005Z" fill="white"/>
<path d="M49.6307 40.5C48.5307 39.4 48.5307 37.7 49.6307 36.6C50.7307 35.5 52.4307 35.5 53.5307 36.6C54.6307 37.7 54.6307 39.4 53.5307 40.5C52.4307 41.6 50.7307 41.6 49.6307 40.5Z" fill="black"/>
<path d="M57.8309 40.5C56.7309 39.4 56.7309 37.7 57.8309 36.6C58.9309 35.5 60.6309 35.5 61.7309 36.6C62.8309 37.7 62.8309 39.4 61.7309 40.5C60.6309 41.6 58.9309 41.6 57.8309 40.5Z" fill="black"/>
<path d="M14.2703 40.5C13.1703 39.4 13.1703 37.7 14.2703 36.6C15.3703 35.5 17.0703 35.5 18.1703 36.6C19.2703 37.7 19.2703 39.4 18.1703 40.5C17.0703 41.6 15.3703 41.6 14.2703 40.5Z" fill="black"/>
<path d="M22.4705 40.5C21.3705 39.4 21.3705 37.7 22.4705 36.6C23.5705 35.5 25.2705 35.5 26.3705 36.6C27.4705 37.7 27.4705 39.4 26.3705 40.5C25.2705 41.6 23.5705 41.6 22.4705 40.5Z" fill="black"/>
<path d="M33.5959 40.4194L22.6357 51.3795L24.6156 53.3594L35.5758 42.3993L33.5959 40.4194Z" fill="black"/>
<path d="M51.3898 22.6406L40.4297 33.6007L42.4096 35.5806L53.3697 24.6205L51.3898 22.6406Z" fill="black"/>
<path d="M32.2502 58.63C30.7502 58.63 29.4502 57.43 29.4502 55.83C29.4502 54.33 30.6502 53.03 32.2502 53.03C33.7502 53.03 35.0502 54.23 35.0502 55.83C35.0502 57.43 33.8502 58.63 32.2502 58.63Z" fill="black"/>
<path d="M38.05 52.83C36.55 52.83 35.25 51.63 35.25 50.03C35.25 48.43 36.45 47.23 38.05 47.23C39.65 47.23 40.85 48.43 40.85 50.03C40.85 51.63 39.65 52.83 38.05 52.83Z" fill="black"/>
<path d="M37.9504 64.23C36.4504 64.23 35.1504 63.03 35.1504 61.43C35.1504 59.83 36.3504 58.63 37.9504 58.63C39.5504 58.63 40.7504 59.83 40.7504 61.43C40.7504 63.03 39.5504 64.23 37.9504 64.23Z" fill="black"/>
<path d="M43.7502 58.5299C42.2502 58.5299 40.9502 57.3299 40.9502 55.7299C40.9502 54.1299 42.1502 52.9299 43.7502 52.9299C45.3502 52.9299 46.5502 54.1299 46.5502 55.7299C46.5502 57.2299 45.3502 58.5299 43.7502 58.5299Z" fill="black"/>
<path d="M38.4102 23.59C36.7102 23.59 35.4102 22.29 35.4102 20.59C35.4102 18.89 36.7102 17.59 38.4102 17.59C40.1102 17.59 41.4102 18.89 41.4102 20.59C41.4102 22.29 40.1102 23.59 38.4102 23.59Z" fill="black"/>
<path d="M44.0498 6.19995C42.4498 4.59995 40.3498 3.69995 38.1498 3.69995C35.9498 3.69995 33.8498 4.59995 32.2498 6.19995L27.0498 11.4V16.8C27.0498 19.6 25.9498 22.2 24.0498 24.1C22.0498 26.1 19.5498 27.1 16.7498 27.1H11.3498L6.1498 32.2999C2.8498 35.5999 2.8498 40.9 6.1498 44.2L31.8498 69.9C33.4498 71.5 35.6498 72.3 37.7498 72.3C39.8498 72.3 42.0498 71.5 43.6498 69.8L69.8498 43.5999C73.1498 40.2999 73.1498 35 69.8498 31.7999L44.0498 6.19995ZM41.3498 67.9C40.3498 68.9 38.9498 69.5 37.5498 69.5C36.1498 69.5 34.7498 68.9 33.7498 67.9L8.0498 42.2C5.9498 40.1 5.9498 36.6999 8.0498 34.5999L12.4498 30.2H16.6498C19.7498 30.2 22.6498 29.2 25.0498 27.2L53.5498 55.7L41.4498 67.8L41.3498 67.9ZM67.6498 41.5999L55.5498 53.7L27.0498 25.2C28.9498 22.8 30.0498 19.9 30.0498 16.8V12.6L34.4498 8.19995C35.4498 7.19995 36.8498 6.59995 38.2498 6.59995C39.6498 6.59995 41.0498 7.19995 42.0498 8.19995L67.7498 33.9C68.7498 34.9 69.3498 36.2999 69.3498 37.7C69.3498 39.1 68.7498 40.5 67.7498 41.5L67.6498 41.5999Z" fill="black"/>
</svg>
