<svg width="80" height="80" viewBox="0 0 80 80" fill="none" xmlns="http://www.w3.org/2000/svg">
<path d="M69.1979 12.1792H12.0049V69.4775H69.1979V12.1792Z" fill="white"/>
<path d="M23.8044 32.9897V30.4888H25.2882V22.3134H23.8044V20.4353L25.1679 19.8126H28.7969V30.4888H30.2405V32.9897H23.8044Z" fill="black"/>
<path d="M22.2003 52.8555C22.2336 52.2524 22.3853 51.6618 22.6469 51.1176C22.9084 50.5734 23.2746 50.0862 23.7245 49.6841C24.1743 49.282 24.6989 48.9727 25.2683 48.7741C25.8377 48.5755 26.4406 48.4914 27.0424 48.5267C29.9397 48.5267 31.5437 50.3144 31.5437 52.7048C31.5437 56.2903 26.5813 57.0838 25.8494 59.444H29.0474V58.058H31.684V61.9448H22.1201V59.6549C23.7743 55.2056 28.3858 54.7135 28.3858 52.7048C28.3896 52.51 28.3522 52.3165 28.2758 52.1373C28.1994 51.9581 28.0859 51.7971 27.9428 51.6651C27.7997 51.5332 27.6302 51.4331 27.4456 51.3717C27.261 51.3103 27.0655 51.2888 26.872 51.3088C26.6288 51.3191 26.39 51.3775 26.1695 51.4806C25.9489 51.5838 25.7509 51.7297 25.5869 51.9099C25.4229 52.0901 25.2961 52.301 25.2138 52.5305C25.1316 52.76 25.0955 53.0036 25.1076 53.2472L22.2003 52.8555Z" fill="black"/>
<path d="M50.6416 58.9017L53.6491 57.9777C53.7995 58.8615 54.2506 59.5244 55.2231 59.5244C55.4276 59.5384 55.6328 59.5077 55.8243 59.4344C56.0158 59.361 56.1891 59.2468 56.3322 59.0997C56.4753 58.9525 56.5847 58.776 56.6528 58.5822C56.721 58.3885 56.7462 58.1822 56.7268 57.9777C56.7268 56.8127 55.8947 56.2301 54.5514 56.2301H54.0802V54.1913H54.5714C55.9549 54.1913 56.5764 53.5686 56.5764 52.5542C56.5882 52.3705 56.5608 52.1863 56.4959 52.014C56.4311 51.8417 56.3303 51.6853 56.2003 51.5551C56.0704 51.4249 55.9142 51.3239 55.7422 51.2589C55.5703 51.194 55.3864 51.1665 55.203 51.1782C54.411 51.1782 53.8897 51.7407 53.7394 52.735L50.9023 51.9215C51.1152 50.9191 51.6834 50.0279 52.5018 49.413C53.3202 48.7981 54.3332 48.5011 55.3534 48.577C58.2406 48.577 59.7243 50.1237 59.7243 52.4538C59.7549 53.0696 59.572 53.677 59.2066 54.1731C58.8411 54.6692 58.3157 55.0234 57.7193 55.1756C58.3986 55.3135 59.0036 55.6966 59.4195 56.2521C59.8353 56.8075 60.033 57.4967 59.9749 58.1886C59.9749 60.5589 58.3008 62.2663 55.1729 62.2663C52.6366 62.2261 51.1028 60.9506 50.6416 58.9017Z" fill="black"/>
<path d="M70.0001 12.2999H40.3459V41.0846H70.0001V12.2999Z" fill="#FF9515"/>
<path d="M10 10V70H70V10H10ZM67.1677 38.5939H41.4061V12.8122H67.1677V38.5939ZM38.5939 12.8122V38.5939H12.8122V12.8122H38.5939ZM12.8122 41.4061H38.5939V67.1677H12.8122V41.4061ZM41.4061 67.1677V41.4061H67.1677V67.1677H41.4061Z" fill="black"/>
</svg>
