<svg width="80" height="81" viewBox="0 0 80 81" fill="none" xmlns="http://www.w3.org/2000/svg">
<g clip-path="url(#clip0)">
<path d="M46.4 60.4554C42.9 63.9554 37.2 63.9554 33.7 60.4554L32.1 58.8554C29.6 59.8554 26.9 60.3554 24.2 60.3554C26.7 69.0554 35.8999 74.0554 44.5999 71.5554C50.0999 69.9554 54.2999 65.6554 55.7999 60.1554C53.1999 60.2554 50.4999 59.7554 48.0999 58.7554L46.4 60.4554Z" fill="#47A590"/>
<path d="M66.9999 28.5553C64.9999 26.5553 62.5999 25.1553 59.8999 24.4553C59.8999 27.1553 59.3999 29.8553 58.3999 32.3553L60.0999 34.0553C63.5999 37.5553 63.5999 43.2553 60.0999 46.7553L58.4999 48.3553C59.4999 50.7553 59.8999 53.2553 59.9999 55.8553C59.9999 55.9553 59.9999 55.9553 59.9999 56.0553C68.6999 53.5553 73.7999 44.4553 71.2999 35.7553C70.4999 33.0553 68.9999 30.5553 66.9999 28.5553Z" fill="#47A590"/>
<path d="M21.3999 48.2554L19.8999 46.7554C16.3999 43.2554 16.3999 37.5554 19.8999 34.0554L21.4999 32.4554C20.4999 30.0554 19.9999 27.4554 19.9999 24.7554V24.5554C11.1999 27.1554 6.19988 36.1554 8.59988 44.9554C10.1999 50.4554 14.3999 54.7554 19.8999 56.2554C19.8999 56.1554 19.8999 56.0554 19.8999 55.8554C19.8999 53.2554 20.3999 50.6554 21.3999 48.2554Z" fill="#47A590"/>
<path d="M32.0001 21.8553L33.6001 20.2553C37.1001 16.7553 42.7001 16.7553 46.2001 20.2553L47.7001 21.7553C50.2001 20.7553 52.9001 20.2553 55.6001 20.2553C54.8001 17.6553 53.4001 15.1553 51.4001 13.2553C45.1001 6.85532 34.7001 6.85532 28.3001 13.2553C26.3001 15.2553 24.9001 17.7553 24.1001 20.4553H24.4001C27.1001 20.4553 29.6001 20.9553 32.0001 21.8553Z" fill="#47A590"/>
<path d="M23.5 24.0554C23.5 24.3554 23.5 24.5554 23.5 24.8554C23.5 26.5554 23.7 28.1554 24.2 29.7554L29.2 24.7554C27.4 24.1554 25.5 23.8554 23.5 24.0554Z" fill="white"/>
<path d="M50.8999 55.9554C52.6999 56.4554 54.4999 56.6554 56.3999 56.5554C56.3999 56.2554 56.3999 56.0554 56.3999 55.7554C56.3999 54.1554 56.1999 52.6554 55.6999 51.0554L50.8999 55.9554Z" fill="white"/>
<path d="M56.4 23.8554C54.5 23.7554 52.6 23.9554 50.7 24.5554L55.7 29.5554C56.3 27.6554 56.5 25.7554 56.4 23.8554Z" fill="white"/>
<path d="M23.5999 56.7554C25.4999 56.8554 27.4999 56.6554 29.2999 56.0554L24.2999 51.0554C23.7999 52.6554 23.5999 54.2554 23.5999 55.8554C23.4999 56.1554 23.4999 56.4554 23.5999 56.7554Z" fill="white"/>
<path d="M44.9 57.1553L44.7 57.3553L44.9 57.1553Z" fill="#54E984"/>
<path d="M51.6001 44.1553C50.7001 43.2553 49.7001 42.4553 48.6001 41.8553C48.0001 45.4553 45.2001 48.2553 41.6001 48.9553C42.3001 50.0553 43.1001 51.0553 44.0001 51.9553C45.1001 53.0553 46.3001 53.8553 47.6001 54.6553L49.3001 52.9553L52.3001 49.9553L54.3001 47.9553C53.5001 46.5553 52.6001 45.2553 51.6001 44.1553Z" fill="#54E984"/>
<path d="M53.5 32.1554L48 26.6554L47.4 26.0554C45 27.4554 43 29.3554 41.5 31.7554C45.1 32.3554 48 35.1554 48.7 38.8554C51 37.4554 53 35.3554 54.3 32.9554L53.5 32.1554Z" fill="#54E984"/>
<path d="M36 28.7553C35 27.7553 33.8 26.8553 32.6 26.1553L31.7999 26.9553L25.7999 32.9553L25.7 33.0553C27 35.3553 28.9999 37.3553 31.2999 38.7553C31.9999 35.1553 34.8 32.3553 38.4 31.6553C37.7 30.6553 36.9 29.6553 36 28.7553Z" fill="#54E984"/>
<path d="M31.2999 41.8553C28.9999 43.3553 27 45.3553 25.7 47.7553L26.1 48.1553L32 54.0553L32.6 54.6553C33.9 53.9553 35.1 53.0553 36.1 51.9553C37 51.0553 37.8 50.0553 38.4 48.9553C34.8 48.3553 31.8999 45.4553 31.2999 41.8553Z" fill="#54E984"/>
<path d="M40 21.0554C38.5 21.0554 37.1 21.6554 36.1 22.6554L35.2 23.5554C36.4 24.3554 37.5 25.1554 38.5 26.1554C39 26.6554 39.4 27.1554 39.9 27.6554C40.3 27.1554 40.8 26.6554 41.2 26.1554C42.2 25.1554 43.3999 24.1554 44.5999 23.3554V23.2554L43.9 22.5554C42.9 21.5554 41.5 21.0554 40 21.0554Z" fill="#B5DD35"/>
<path d="M40 52.9553C39.6 53.4553 39.1001 53.9553 38.7001 54.4553C37.7001 55.4553 36.5 56.4553 35.3 57.2553L36.2001 58.1553C38.4001 60.3553 41.9 60.3553 44.1 58.1553L44.8 57.4553L44.9001 57.1553C43.7001 56.3553 42.5 55.4553 41.5 54.4553C40.9 53.9553 40.4 53.4553 40 52.9553Z" fill="#B5DD35"/>
<path d="M56.9 45.1553L57.7999 44.2553C59.9999 42.0553 59.9999 38.5553 57.7999 36.3553L56.9 35.4553C55.8 37.2553 54.3 38.8553 52.7 40.2553C53.2 40.6553 53.7 41.1553 54.2 41.6553C55.2 42.7553 56.1 43.8553 56.9 45.1553Z" fill="#B5DD35"/>
<path d="M23.0999 35.6553L22.2999 36.4553C20.0999 38.6553 20.0999 42.1553 22.2999 44.3553L23.0999 45.1553C23.8999 43.9553 24.7999 42.7553 25.7999 41.7553C26.2999 41.2553 26.7999 40.8553 27.2999 40.3553C26.7999 39.9553 26.2999 39.4553 25.7999 38.9553C24.7999 37.9553 23.8999 36.8553 23.0999 35.6553Z" fill="#B5DD35"/>
<path d="M45.4001 40.3553C45.4001 37.3553 43.0001 34.9553 40.0001 34.9553C37.0001 34.9553 34.6001 37.3553 34.6001 40.3553C34.6001 43.3553 37.0001 45.7553 40.0001 45.7553C43.0001 45.7553 45.4001 43.2553 45.4001 40.3553Z" fill="white"/>
<path d="M69.5001 26.0554C66.8001 23.3554 63.3001 21.4554 59.5001 20.6554C57.2001 9.85536 46.6001 2.95536 35.8001 5.35536C28 6.95536 22.0001 13.0554 20.4001 20.8554C9.60005 23.0554 2.70005 33.7554 4.90005 44.5554C6.50005 52.3554 12.6001 58.3554 20.3001 59.9554C22.6001 70.7554 33.2001 77.6554 44.0001 75.4554C51.8001 73.8554 57.9001 67.6554 59.5001 59.8554C70.3001 57.5554 77.3001 47.0554 75.0001 36.1554C74.3001 32.2554 72.3001 28.7554 69.5001 26.0554ZM55.7001 29.5554L50.7001 24.5554C52.5001 23.9554 54.5001 23.7554 56.4001 23.8554C56.5001 25.7554 56.2001 27.6554 55.7001 29.5554ZM32.0001 53.9554L26.1001 48.0554L25.7001 47.6554C27.1001 45.2554 29.0001 43.2554 31.3001 41.8554C31.9001 45.4554 34.8001 48.3554 38.5001 48.9554C37.8001 50.0554 37.1001 51.0554 36.2001 51.9554C35.2001 52.9554 34.0001 53.8554 32.7001 54.6554L32.0001 53.9554ZM39.9001 27.6554C39.5001 27.1554 39.0001 26.6554 38.5001 26.1554C37.5001 25.1554 36.4001 24.2554 35.2001 23.5554L36.1001 22.6554C38.3001 20.4554 41.8001 20.4554 43.9001 22.6554L44.6001 23.3554L44.7001 23.4554C43.5001 24.2554 42.3001 25.1554 41.3001 26.2554C40.8001 26.6554 40.3001 27.1554 39.9001 27.6554ZM45.4001 40.3554C45.4001 43.3554 43.0001 45.7554 40.0001 45.7554C37.0001 45.7554 34.5001 43.3554 34.5001 40.3554C34.5001 37.3554 36.9001 34.9554 39.9001 34.9554C42.9001 34.8554 45.4001 37.3554 45.4001 40.3554ZM36.0001 28.7554C36.9001 29.6554 37.7001 30.6554 38.4001 31.7554C34.8001 32.3554 32.0001 35.1554 31.3001 38.7554C29.0001 37.3554 27.1001 35.3554 25.7001 32.9554L25.8001 32.8554L31.8001 26.8554L32.6001 26.0554C33.8001 26.8554 35.0001 27.7554 36.0001 28.7554ZM38.7001 54.4554C39.2001 53.9554 39.6001 53.4554 40.0001 52.9554C40.4001 53.4554 40.9001 53.9554 41.4001 54.4554C42.4001 55.4554 43.6001 56.3554 44.8001 57.1554L44.9001 57.2554L44.7001 57.4554L44.0001 58.1554C41.8001 60.3554 38.3001 60.3554 36.1001 58.1554L35.2001 57.2554C36.5001 56.4554 37.6001 55.4554 38.7001 54.4554ZM43.9001 51.9554C43.0001 51.0554 42.2001 50.0554 41.5001 48.9554C45.1001 48.2554 47.9001 45.4554 48.5001 41.8554C50.9001 43.2554 52.8001 45.3554 54.2001 47.7554L52.2001 49.7554L49.2001 52.7554L47.5001 54.4554C46.2001 53.7554 45.0001 52.9554 43.9001 51.9554ZM48.6001 38.7554C47.9001 35.1554 45.1001 32.2554 41.4001 31.6554C42.8001 29.2554 44.9001 27.3554 47.3001 25.9554L47.9001 26.5554L53.4001 32.0554L54.2001 32.8554C52.9001 35.2554 50.9001 37.2554 48.6001 38.7554ZM28.4001 13.1554C34.8001 6.75536 45.2001 6.75536 51.6001 13.1554C53.6001 15.0554 55.0001 17.5554 55.8001 20.1554C53.1001 20.1554 50.4001 20.6554 47.9001 21.6554L46.4001 20.1554C42.9001 16.6554 37.3 16.6554 33.8001 20.1554L32.1001 21.8554C29.7001 20.8554 27.1001 20.3554 24.5001 20.3554H24.2001C24.9001 17.6554 26.4001 15.1554 28.4001 13.1554ZM23.5001 24.0554C25.4001 23.9554 27.3001 24.1554 29.2001 24.7554L24.2001 29.7554C23.8001 28.1554 23.5001 26.4554 23.5001 24.8554C23.5001 24.5554 23.5001 24.2554 23.5001 24.0554ZM19.9001 55.8554C19.9001 55.9554 19.9001 56.0554 19.9001 56.2554C11.2001 53.7554 6.20005 44.6554 8.60005 35.8554C10.2001 30.3554 14.4001 26.0554 19.9001 24.5554V24.8554C19.9001 27.4554 20.4001 30.0554 21.4001 32.5554L19.8001 34.1554C16.3001 37.6554 16.3001 43.3554 19.8001 46.8554L21.3001 48.3554C20.5001 50.6554 19.9001 53.2554 19.9001 55.8554ZM22.3001 44.2554C20.1001 42.0554 20.1001 38.5554 22.3001 36.3554L23.1001 35.5554C23.9001 36.7554 24.8001 37.8554 25.8001 38.8554C26.3001 39.3554 26.8001 39.7554 27.3001 40.2554C26.8001 40.6554 26.3001 41.1554 25.8001 41.6554C24.8001 42.6554 23.9001 43.8554 23.1001 45.0554L22.3001 44.2554ZM23.5001 55.8554C23.5001 54.2554 23.7001 52.6554 24.2001 51.0554L29.2001 56.0554C27.4001 56.6554 25.4001 56.8554 23.5001 56.7554C23.5001 56.4554 23.5001 56.1554 23.5001 55.8554ZM51.5001 67.4554C45.1001 73.8554 34.7001 73.8554 28.3001 67.4554C26.4001 65.5554 24.9001 63.0554 24.1001 60.4554C26.8001 60.5554 29.5001 59.9554 32.0001 58.9554L33.6001 60.5554C37.1001 64.0554 42.8001 64.0554 46.3001 60.5554L48.0001 58.8554C50.5001 59.8554 53.1001 60.3554 55.7001 60.2554C55.0001 62.9554 53.6001 65.4554 51.5001 67.4554ZM56.4001 56.6554C54.6001 56.7554 52.7001 56.5554 50.9001 56.0554L55.7001 51.2554C56.1001 52.7554 56.4001 54.3554 56.4001 55.9554C56.4001 56.0554 56.4001 56.3554 56.4001 56.6554ZM56.9001 45.1554C56.1001 43.8554 55.2001 42.7554 54.1001 41.6554C53.6001 41.1554 53.1001 40.7554 52.6001 40.2554C54.3001 38.8554 55.7001 37.2554 56.8001 35.4554L57.7001 36.3554C59.9001 38.5554 59.9001 42.0554 57.7001 44.2554L56.9001 45.1554ZM67.1001 51.7554C65.1001 53.7554 62.6001 55.2554 59.9001 55.9554C59.9001 55.8554 59.9001 55.8554 59.9001 55.7554C59.9001 53.1554 59.4001 50.6554 58.4001 48.2554L60.1001 46.6554C63.6001 43.1554 63.6001 37.4554 60.1001 33.9554L58.5001 32.3554C59.5001 29.8554 60.0001 27.1554 60.0001 24.4554C68.7001 26.9554 73.8 36.0554 71.2001 44.7554C70.4 47.3554 69.0001 49.7554 67.1001 51.7554Z" fill="black"/>
</g>
<defs>
<clipPath id="clip0">
<rect x="4.5" y="4.85535" width="71" height="71" fill="white"/>
</clipPath>
</defs>
</svg>
