<svg width="81" height="81" viewBox="-8.5 -11 81 81" fill="none" xmlns="http://www.w3.org/2000/svg">
  <g clip-path="url(#clip0_521_159)">
  <path d="M42.8555 21.437H42.8455V21.447H42.8555V21.437Z" fill="#7FA768"/>
  <path d="M42.8455 22.881V56.549H55.0625C56.896 56.549 58.3875 55.0765 58.3875 53.262V39.6485V22.957L42.8455 22.881Z" fill="#6AAA64"/>
  <path d="M57.846 8.24151V20.0975L42.8645 20.031L42.931 5.03051H54.635C56.402 5.03051 57.846 6.47451 57.846 8.24151Z" fill="white"/>
  <path d="M40.8505 40.1045V56.53H24.577V40.0285L40.8505 40.1045Z" fill="#6AAA64"/>
  <path d="M41.0785 21.8265L40.993 38.86L23.9785 38.765L24.0545 21.76L41.0785 21.8265Z" fill="#D1B036"/>
  <path d="M40.081 5.03051L40.0145 20.012L25.014 19.955V5.03051H40.081Z" fill="white"/>
  <path d="M23.38 39.943V56.6155H10.251C8.29403 56.6155 6.69803 55.0195 6.69803 53.0625V39.943H23.38Z" fill="#6AAA64"/>
  <path d="M22.1545 22.881L22.0785 37.8625H7.04953V22.881H22.1545Z" fill="white"/>
  <path d="M22.164 5.03051V20.031H7.04953V8.24151C7.04953 6.47451 8.49353 5.03051 10.27 5.03051H22.164Z" fill="white"/>
  <path d="M54.6825 2.24701H10.3175C6.97353 2.24701 4.24703 4.96401 4.24703 8.30801V52.673C4.24703 56.017 6.97353 58.7435 10.3175 58.7435H54.6825C58.0265 58.7435 60.7435 56.017 60.7435 52.673V8.30801C60.7435 4.97351 58.0265 2.24701 54.6825 2.24701ZM42.893 21.513H42.9025V21.5225H42.893V21.513ZM7.10653 22.957H22.2115L22.1355 37.9385H7.10653V22.957ZM22.2115 55.903H10.3175C8.54103 55.903 7.09703 54.459 7.09703 52.6825V40.779H22.2115V55.903ZM22.2115 20.107H7.10653V8.30801C7.10653 6.54101 8.55053 5.09701 10.327 5.09701H22.221V20.107H22.2115ZM40.043 55.903H25.0615V40.7125L40.043 40.7885V55.903ZM39.967 37.929L24.9855 37.853L25.052 22.8715L40.043 22.9285L39.967 37.929ZM40.062 20.088L25.0615 20.031V5.09701H40.1285L40.062 20.088ZM57.8935 52.6825C57.8935 54.459 56.4495 55.903 54.6825 55.903H42.893V40.779H57.8935V52.6825ZM57.8935 37.929H42.8265L42.893 22.9475L57.8935 23.014V37.929ZM57.8935 20.1735L42.912 20.107L42.9785 5.10651H54.6825C56.4495 5.10651 57.8935 6.55051 57.8935 8.31751V20.1735Z" fill="black"/>
  </g>
  <defs>
  <clipPath id="clip0_521_159">
  <rect width="57" height="57" fill="white" transform="translate(4.00003 2)"/>
  </clipPath>
  </defs>
</svg>
