<svg width="80" height="80" viewBox="0 0 80 80" fill="none" xmlns="http://www.w3.org/2000/svg">
<path d="M53.8852 27.2648H53.8723V27.2777H53.8852V27.2648Z" fill="#769F25"/>
<path d="M53.8723 29.2277V74.9952H70.4798C72.9722 74.9952 74.9997 72.9935 74.9997 70.527V52.021V29.3311L53.8723 29.2277Z" fill="#B05988"/>
<path d="M74.2635 9.32715V25.4439L53.8981 25.3535L53.9885 4.96219H69.8986C72.3007 4.96219 74.2635 6.92513 74.2635 9.32715Z" fill="white"/>
<path d="M51.1603 52.6409V74.9694H29.0385V52.5377L51.1603 52.6409Z" fill="#B05988"/>
<path d="M51.4701 27.7942L51.3539 50.9492L28.2249 50.82L28.3281 27.7039L51.4701 27.7942Z" fill="#ECC91C"/>
<path d="M50.114 4.96219L50.0237 25.3277L29.6323 25.2502V4.96219H50.114Z" fill="white"/>
<path d="M27.4112 52.4214V75.0855H9.56399C6.90369 75.0855 4.73413 72.916 4.73413 70.2557V52.4214H27.4112Z" fill="#B05988"/>
<path d="M25.7452 29.2277L25.6419 49.5932H5.21179V29.2277H25.7452Z" fill="white"/>
<path d="M25.7581 4.96219V25.3535H5.21179V9.32716C5.21179 6.92513 7.17473 4.96219 9.58966 4.96219H25.7581Z" fill="white"/>
<path d="M69.8511 1.29032H9.54237C4.99662 1.29032 1.29028 4.98374 1.29028 9.5295V69.8382C1.29028 74.384 4.99662 78.0903 9.54237 78.0903H69.8511C74.3969 78.0903 78.0903 74.384 78.0903 69.8382V9.5295C78.0903 4.99666 74.3969 1.29032 69.8511 1.29032ZM53.8247 27.4801H53.8376V27.493H53.8247V27.4801ZM5.17742 29.443H25.7108L25.6074 49.8085H5.17742V29.443ZM25.7108 74.229H9.54237C7.12744 74.229 5.1645 72.2661 5.1645 69.8511V53.6698H25.7108V74.229ZM25.7108 25.5688H5.17742V9.5295C5.17742 7.12748 7.14036 5.16454 9.55529 5.16454H25.7237V25.5688H25.7108ZM49.9505 74.229H29.585V53.5794L49.9505 53.6827V74.229ZM49.8472 49.7956L29.4818 49.6923L29.5721 29.3268L49.9505 29.4043L49.8472 49.7956ZM49.9764 25.543L29.585 25.4654V5.16454H50.0668L49.9764 25.543ZM74.2161 69.8511C74.2161 72.2661 72.2531 74.229 69.8511 74.229H53.8247V53.6698H74.2161V69.8511ZM74.2161 49.7956H53.7343L53.8247 29.4301L74.2161 29.5205V49.7956ZM74.2161 25.6592L53.8505 25.5688L53.941 5.17746H69.8511C72.2531 5.17746 74.2161 7.1404 74.2161 9.54241V25.6592Z" fill="black"/>
</svg>
