<svg width="20" height="21" viewBox="0 0 20 21" fill="none" xmlns="http://www.w3.org/2000/svg">
<path d="M17.7 4.0998V6.0998H14.5V2.7998H16.4C17.2 2.7998 17.7 3.3998 17.7 4.0998Z" fill="#BC70C4"/>
<path d="M5.4998 10.8999H2.2998V14.3999H5.4998V10.8999Z" fill="#BC70C4"/>
<path d="M17.6999 10.8999H10.3999V14.2999H17.6999V10.8999Z" fill="#BC70C4"/>
<path d="M16.3998 1.8999H3.4998C2.2998 1.8999 1.2998 2.8999 1.2998 4.0999V16.9999C1.2998 18.1999 2.2998 19.0999 3.4998 19.0999H16.3998C17.5998 19.0999 18.4998 18.0999 18.4998 16.9999V3.9999C18.5998 2.8999 17.5998 1.8999 16.3998 1.8999ZM10.3998 2.7999H13.5998V5.9999H10.3998V2.7999ZM2.2998 3.9999C2.2998 3.2999 2.8998 2.6999 3.5998 2.6999H9.5998V5.8999H2.2998C2.2998 5.9999 2.2998 3.9999 2.2998 3.9999ZM2.2998 6.7999H13.6998V9.9999H2.2998V6.7999ZM9.5998 10.8999V14.0999H6.2998V10.8999H9.5998ZM5.4998 18.1999H3.4998C2.7998 18.1999 2.1998 17.5999 2.1998 16.8999V14.9999H5.39981V18.1999H5.4998ZM5.4998 14.1999H2.2998V10.9999H5.4998V14.1999ZM17.6998 16.8999C17.6998 17.5999 17.0998 18.1999 16.3998 18.1999H6.2998V14.9999H17.6998V16.8999ZM17.6998 14.1999H10.3998V10.9999H17.6998V14.1999ZM17.6998 10.0999H14.4998V6.7999H17.6998V10.0999ZM17.6998 5.9999H14.4998V2.7999H16.3998C17.0998 2.7999 17.6998 3.3999 17.6998 4.0999V5.9999Z" fill="black"/>
<path d="M5.5002 15V18.2H3.5002C2.8002 18.2 2.2002 17.6 2.2002 16.9V15H5.5002Z" fill="white"/>
<path d="M9.4998 10.8999H6.2998V14.0999H9.4998V10.8999Z" fill="white"/>
<path d="M17.7 6.7998H14.5V9.9998H17.7V6.7998Z" fill="white"/>
<path d="M13.5999 2.7998H10.3999V5.9998H13.5999V2.7998Z" fill="white"/>
<path d="M17.6998 15V16.9C17.6998 17.6 17.0998 18.2 16.3998 18.2H6.2998V15H17.6998Z" fill="#BC70C4"/>
<path d="M13.6998 6.7998H2.2998V9.9998H13.6998V6.7998Z" fill="#BC70C4"/>
<path d="M9.5998 2.8002V6.0002H2.2998V4.0002C2.2998 3.3002 2.8998 2.7002 3.5998 2.7002H9.5998V2.8002Z" fill="#BC70C4"/>
</svg>
