<svg width="20" height="21" viewBox="0 0 20 21" fill="none" xmlns="http://www.w3.org/2000/svg">
<path d="M2.28418 3.969V7.25208H6.80169V2.78418H3.469C3.15477 2.78418 2.8534 2.90901 2.6312 3.1312C2.40901 3.3534 2.28418 3.65477 2.28418 3.969Z" fill="white"/>
<path d="M13.21 18.2158H16.531C16.6074 18.2148 16.6836 18.207 16.7586 18.1924C16.9851 18.1443 17.1928 18.0318 17.3569 17.8685C17.5786 17.6461 17.7034 17.345 17.7041 17.031V13.7012H13.21V18.2158Z" fill="white"/>
<path d="M12.2966 13.7012H7.71777V18.2158H12.2966V13.7012Z" fill="white"/>
<path d="M17.7129 8.16846H13.21V12.7472H17.7129V8.16846Z" fill="white"/>
<path d="M12.2966 2.78418H7.71777V7.25208H12.2966V2.78418Z" fill="white"/>
<path d="M6.80169 8.16846H2.28418V12.7472H6.80169V8.16846Z" fill="white"/>
<path d="M18.2823 2.72256C18.1964 2.60661 18.0986 2.5 17.9905 2.40446C17.6253 2.05852 17.1501 1.85193 16.6481 1.8208C16.6043 1.8208 16.5634 1.8208 16.5197 1.8208H3.46912C3.42535 1.8208 3.38449 1.8208 3.34072 1.8208C2.79308 1.85211 2.27817 2.09175 1.90159 2.49058C1.525 2.88941 1.31528 3.41722 1.31543 3.96575V17.0339C1.3162 17.6041 1.54304 18.1507 1.94623 18.5539C2.34941 18.957 2.89602 19.1839 3.4662 19.1847H16.5343C17.1047 19.1831 17.6513 18.9556 18.0544 18.552C18.4575 18.1483 18.6843 17.6014 18.685 17.031V3.96866C18.684 3.52147 18.5432 3.08579 18.2823 2.72256ZM6.80181 12.744H2.2843V8.16808H6.80181V12.744ZM6.80181 7.25174H2.2843V3.96866C2.2843 3.65443 2.40913 3.35307 2.63132 3.13087C2.85352 2.90867 3.15489 2.78384 3.46912 2.78384H6.80181V7.25174ZM12.2969 18.2158H7.71231V13.7012H12.2969V18.2158ZM12.2969 7.25174H7.71231V2.78384H12.2969V7.25174ZM17.7162 17.031C17.7154 17.345 17.5906 17.6461 17.3689 17.8685C17.2016 18.0338 16.9896 18.1464 16.759 18.1924C16.6801 18.2077 16.6 18.2155 16.5197 18.2158H13.2103V13.7012H17.7162V17.031ZM17.7162 12.744H13.2103V8.16808H17.7162V12.744Z" fill="black"/>
</svg>
