<svg width="20" height="21" viewBox="0 0 20 21" fill="none" xmlns="http://www.w3.org/2000/svg">
<path d="M16.5314 2.78424H10.6948L17.7279 9.81732V3.98074C17.7294 3.82318 17.6995 3.66689 17.64 3.52102C17.5804 3.37515 17.4923 3.24263 17.3809 3.13121C17.2695 3.0198 17.1369 2.93172 16.9911 2.87214C16.8452 2.81257 16.6889 2.78268 16.5314 2.78424Z" fill="#6493E6"/>
<path d="M17.7159 17.031V11.0952L10.5952 18.2159H16.531C16.6886 18.2187 16.8452 18.191 16.9921 18.1341C17.2081 18.0421 17.392 17.8883 17.5207 17.692C17.6495 17.4957 17.7174 17.2658 17.7159 17.031Z" fill="#6493E6"/>
<path d="M2.28418 3.969V9.82601L9.32601 2.78418H3.469C3.15618 2.7887 2.85743 2.91498 2.63621 3.13621C2.41498 3.35743 2.2887 3.65618 2.28418 3.969Z" fill="#6493E6"/>
<path d="M2.28418 17.031C2.28418 17.3452 2.40901 17.6466 2.6312 17.8688C2.8534 18.091 3.15477 18.2158 3.469 18.2158H9.41355L2.28418 11.0864V17.031Z" fill="#6493E6"/>
<path d="M10.003 3.47949L6.69727 6.78528L10.003 10.0911L13.3088 6.78528L10.003 3.47949Z" fill="white"/>
<path d="M10.0031 10.8223L6.69727 14.1281L10.0031 17.4339L13.3089 14.1281L10.0031 10.8223Z" fill="white"/>
<path d="M16.5313 1.81543H3.46912C2.89843 1.81543 2.35107 2.04193 1.94726 2.4452C1.54345 2.84846 1.3162 3.39551 1.31543 3.9662V17.0343C1.3162 17.6044 1.54304 18.1511 1.94623 18.5542C2.34941 18.9574 2.89602 19.1843 3.4662 19.185H16.5343C17.1047 19.1835 17.6513 18.956 18.0544 18.5524C18.4575 18.1487 18.6843 17.6018 18.685 17.0313V3.96912C18.6843 3.39816 18.4571 2.85081 18.0534 2.44708C17.6496 2.04335 17.1023 1.8162 16.5313 1.81543ZM10.0031 3.47885L13.3095 6.78527L10.0031 10.0917L6.69675 6.78527L10.0031 3.47885ZM2.2843 3.96912C2.28882 3.6563 2.4151 3.35755 2.63633 3.13633C2.85755 2.9151 3.1563 2.78882 3.46912 2.7843H9.32613L2.2843 9.82613V3.96912ZM9.41367 18.2162H3.46912C3.15489 18.2162 2.85352 18.0913 2.63132 17.8691C2.40913 17.6469 2.2843 17.3456 2.2843 17.0313V11.0868L9.41367 18.2162ZM9.99733 17.4341L6.69967 14.1306L10.0031 10.8387L13.3095 14.1306L10.0031 17.4341H9.99733ZM17.7103 17.0313C17.7124 17.2654 17.6453 17.4949 17.5177 17.6911C17.39 17.8873 17.2073 18.0415 16.9924 18.1345C16.8463 18.1953 16.6896 18.227 16.5313 18.2278H10.5955L17.7162 11.1072L17.7103 17.0313ZM17.7103 9.81737L10.6831 2.7843H16.5197C16.8339 2.7843 17.1353 2.90913 17.3575 3.13132C17.5797 3.35352 17.7045 3.65489 17.7045 3.96912L17.7103 9.81737Z" fill="black"/>
<path d="M17.7159 17.031C17.7175 17.2658 17.6496 17.4957 17.5208 17.692C17.392 17.8883 17.2081 18.0421 16.9922 18.1341C17.2063 18.0429 17.389 17.8908 17.5176 17.6969C17.6462 17.5029 17.7152 17.2755 17.7159 17.0427V11.0952V17.031Z" fill="black"/>
<path d="M10.0059 10.0914L13.3123 6.78494L10.0059 3.47852L13.3094 6.78494L10.0059 10.0914Z" fill="black"/>
</svg>
