<svg width="23" height="25" viewBox="0 0 23 25" fill="none" xmlns="http://www.w3.org/2000/svg">
<path d="M11.3981 0.0767497C13.2276 0.0459553 15.0358 0.473146 16.6581 1.31944V0.5107H22.7926V8.15751H16.6646C16.2308 6.31649 15.4549 5.47488 13.6138 5.47488C11.2994 5.48803 9.88582 7.1844 9.88582 11.9119C9.88582 17.0075 11.1679 18.6382 14.0478 18.6382C14.7872 18.6536 15.5169 18.4672 16.1584 18.099V15.8701H14.2516V11.4056H22.7992V24.0166H17.5392V22.8462C16.0179 23.9614 14.1641 24.5291 12.2791 24.4571C5.63826 24.4571 0.976562 20.0649 0.976562 11.9184C1.00943 4.46889 5.70409 0.0767497 11.3981 0.0767497Z" fill="black"/>
</svg>
