<svg width="21" height="18" viewBox="0 0 21 18" fill="none" xmlns="http://www.w3.org/2000/svg">
<path d="M6.49895 17.3208C2.84325 17.3208 0.699707 15.3483 0.699707 11.9884C0.699707 8.62857 3.21796 6.49168 7.20252 6.49168C8.71187 6.47889 10.2 6.84757 11.5289 7.5634C11.4631 5.75526 10.0889 4.57829 7.53781 4.57829C5.69607 4.58536 3.88148 5.02216 2.23828 5.85385V1.62613C4.71484 0.923875 7.27802 0.574155 9.85223 0.58727C16.8283 0.58727 19.2086 3.63813 19.2086 6.32071V12.6591H20.6156V17.0184H11.6012V15.4075C10.3256 16.8145 8.44521 17.3208 6.49895 17.3208ZM11.6932 11.6202C11.7234 11.3886 11.7 11.1531 11.6247 10.932C11.5494 10.7109 11.4244 10.5099 11.2592 10.3448C11.0941 10.1795 10.8932 10.0545 10.672 9.97932C10.4508 9.90403 10.2154 9.88052 9.98379 9.91068C8.84624 9.91068 8.07039 10.4828 8.07039 11.6531C8.07039 12.8235 8.72788 13.2969 9.95082 13.2969C11.1739 13.2969 11.6998 12.7905 11.6998 11.64L11.6932 11.6202Z" fill="black"/>
</svg>
