<svg width="17" height="18" viewBox="0 0 17 18" fill="none" xmlns="http://www.w3.org/2000/svg">
<path d="M4.48267 17.0213H0.860352V11.643H4.45044C4.88412 13.05 5.45611 13.7864 6.82995 13.7864C7.86891 13.7864 8.50643 13.3525 8.50643 12.5437C8.50643 11.9717 8.13827 11.5377 7.43523 11.2287L3.95019 9.75588C3.14523 9.43358 2.45571 8.87718 1.97003 8.15854C1.48539 7.44001 1.22644 6.59241 1.22852 5.72536C1.22852 2.97706 3.94396 0.563965 7.36244 0.563965C8.80596 0.580834 10.2266 0.924782 11.5183 1.56995V0.912448H15.1676V5.94241H11.8136C11.512 4.4367 10.9067 3.69372 9.70347 3.69372C8.82883 3.69372 8.15804 4.12761 8.15804 4.83117C8.15804 5.43614 8.55947 5.93575 9.40083 6.27115L12.8204 7.58613C15.0688 8.46066 16.1078 9.90054 16.1078 11.8468C16.1078 14.9305 13.4776 17.3106 9.70347 17.3106C8.02699 17.3106 6.85595 17.0411 4.44315 16.1732L4.48267 17.0213Z" fill="black"/>
</svg>
