<svg width="20" height="18" viewBox="0 0 20 18" fill="none" xmlns="http://www.w3.org/2000/svg">
<path d="M10.5723 17.3533C8.15848 17.3533 5.47632 16.8536 3.596 15.177C2.70472 14.3956 1.99544 13.4298 1.51496 12.3467C1.03448 11.2636 0.795288 10.089 0.814008 8.90438C0.814008 3.64437 5.00937 0.586914 10.0201 0.586914C15.4312 0.586914 19.041 4.407 19.041 9.00952C19.041 9.54876 19.0078 10.0485 18.9745 10.5876H8.45489C8.65873 12.468 9.66441 13.3031 11.2026 13.3031C11.7059 13.2993 12.201 13.1684 12.6398 12.9223C13.0787 12.6764 13.449 12.3233 13.7152 11.896H18.9745C17.844 15.5846 14.438 17.3533 10.5723 17.3533ZM8.39561 8.14819H12.3403V7.74717C12.3403 6.37302 12.0054 4.9659 10.3685 4.9659C9.96912 4.95383 9.57705 5.07166 9.25049 5.30171C8.92497 5.53176 8.68265 5.86154 8.55993 6.24146C8.38729 6.85682 8.32904 7.49871 8.38936 8.13509L8.39561 8.14819Z" fill="black"/>
</svg>
