<svg width="32" height="18" viewBox="0 0 32 18" fill="none" xmlns="http://www.w3.org/2000/svg">
<path d="M2.11081 12.6588V5.28154H0.795739V0.922242H9.71155V2.66458C11.7893 1.08661 12.894 0.586914 14.5377 0.586914C16.5497 0.586914 17.7595 1.15895 19.3309 2.8027C21.3758 1.19182 22.8157 0.586914 24.5909 0.586914C27.8788 0.586914 30.1533 2.83556 30.1533 5.74829V12.6521H31.4689V17.0114H22.5659V7.26066C22.5659 5.98499 22.0661 5.28809 21.1917 5.28809C20.3172 5.28809 19.9161 5.94558 19.9161 7.26066V12.6588H21.0536V17.018H12.3351V7.19482C12.3351 6.05738 11.7959 5.28154 11.02 5.28154C10.2441 5.28154 9.705 6.01796 9.705 7.19482V12.6588H10.8754V17.018H0.769531V12.6588H2.11081Z" fill="black"/>
</svg>
